%TF.GenerationSoftware,KiCad,Pcbnew,8.0.6*%
%TF.CreationDate,2025-03-18T08:59:09+02:00*%
%TF.ProjectId,SVI-328-PicoROM,5356492d-3332-4382-9d50-69636f524f4d,1.0*%
%TF.SameCoordinates,Original*%
%TF.FileFunction,Legend,Top*%
%TF.FilePolarity,Positive*%
%FSLAX46Y46*%
G04 Gerber Fmt 4.6, Leading zero omitted, Abs format (unit mm)*
G04 Created by KiCad (PCBNEW 8.0.6) date 2025-03-18 08:59:09*
%MOMM*%
%LPD*%
G01*
G04 APERTURE LIST*
%ADD10C,0.150000*%
%ADD11C,0.300000*%
%ADD12C,0.120000*%
G04 APERTURE END LIST*
D10*
X151620363Y-90094295D02*
X151887030Y-90894295D01*
X151887030Y-90894295D02*
X152153696Y-90094295D01*
X152725125Y-90856200D02*
X152648934Y-90894295D01*
X152648934Y-90894295D02*
X152496553Y-90894295D01*
X152496553Y-90894295D02*
X152420363Y-90856200D01*
X152420363Y-90856200D02*
X152382267Y-90780009D01*
X152382267Y-90780009D02*
X152382267Y-90475247D01*
X152382267Y-90475247D02*
X152420363Y-90399057D01*
X152420363Y-90399057D02*
X152496553Y-90360961D01*
X152496553Y-90360961D02*
X152648934Y-90360961D01*
X152648934Y-90360961D02*
X152725125Y-90399057D01*
X152725125Y-90399057D02*
X152763220Y-90475247D01*
X152763220Y-90475247D02*
X152763220Y-90551438D01*
X152763220Y-90551438D02*
X152382267Y-90627628D01*
X153106077Y-90894295D02*
X153106077Y-90360961D01*
X153106077Y-90513342D02*
X153144172Y-90437152D01*
X153144172Y-90437152D02*
X153182267Y-90399057D01*
X153182267Y-90399057D02*
X153258458Y-90360961D01*
X153258458Y-90360961D02*
X153334648Y-90360961D01*
X153563219Y-90856200D02*
X153639410Y-90894295D01*
X153639410Y-90894295D02*
X153791791Y-90894295D01*
X153791791Y-90894295D02*
X153867981Y-90856200D01*
X153867981Y-90856200D02*
X153906077Y-90780009D01*
X153906077Y-90780009D02*
X153906077Y-90741914D01*
X153906077Y-90741914D02*
X153867981Y-90665723D01*
X153867981Y-90665723D02*
X153791791Y-90627628D01*
X153791791Y-90627628D02*
X153677505Y-90627628D01*
X153677505Y-90627628D02*
X153601315Y-90589533D01*
X153601315Y-90589533D02*
X153563219Y-90513342D01*
X153563219Y-90513342D02*
X153563219Y-90475247D01*
X153563219Y-90475247D02*
X153601315Y-90399057D01*
X153601315Y-90399057D02*
X153677505Y-90360961D01*
X153677505Y-90360961D02*
X153791791Y-90360961D01*
X153791791Y-90360961D02*
X153867981Y-90399057D01*
X154248934Y-90894295D02*
X154248934Y-90360961D01*
X154248934Y-90094295D02*
X154210838Y-90132390D01*
X154210838Y-90132390D02*
X154248934Y-90170485D01*
X154248934Y-90170485D02*
X154287029Y-90132390D01*
X154287029Y-90132390D02*
X154248934Y-90094295D01*
X154248934Y-90094295D02*
X154248934Y-90170485D01*
X154744171Y-90894295D02*
X154667981Y-90856200D01*
X154667981Y-90856200D02*
X154629886Y-90818104D01*
X154629886Y-90818104D02*
X154591790Y-90741914D01*
X154591790Y-90741914D02*
X154591790Y-90513342D01*
X154591790Y-90513342D02*
X154629886Y-90437152D01*
X154629886Y-90437152D02*
X154667981Y-90399057D01*
X154667981Y-90399057D02*
X154744171Y-90360961D01*
X154744171Y-90360961D02*
X154858457Y-90360961D01*
X154858457Y-90360961D02*
X154934648Y-90399057D01*
X154934648Y-90399057D02*
X154972743Y-90437152D01*
X154972743Y-90437152D02*
X155010838Y-90513342D01*
X155010838Y-90513342D02*
X155010838Y-90741914D01*
X155010838Y-90741914D02*
X154972743Y-90818104D01*
X154972743Y-90818104D02*
X154934648Y-90856200D01*
X154934648Y-90856200D02*
X154858457Y-90894295D01*
X154858457Y-90894295D02*
X154744171Y-90894295D01*
X155353696Y-90360961D02*
X155353696Y-90894295D01*
X155353696Y-90437152D02*
X155391791Y-90399057D01*
X155391791Y-90399057D02*
X155467981Y-90360961D01*
X155467981Y-90360961D02*
X155582267Y-90360961D01*
X155582267Y-90360961D02*
X155658458Y-90399057D01*
X155658458Y-90399057D02*
X155696553Y-90475247D01*
X155696553Y-90475247D02*
X155696553Y-90894295D01*
X157106077Y-90894295D02*
X156648934Y-90894295D01*
X156877506Y-90894295D02*
X156877506Y-90094295D01*
X156877506Y-90094295D02*
X156801315Y-90208580D01*
X156801315Y-90208580D02*
X156725125Y-90284771D01*
X156725125Y-90284771D02*
X156648934Y-90322866D01*
X157448935Y-90818104D02*
X157487030Y-90856200D01*
X157487030Y-90856200D02*
X157448935Y-90894295D01*
X157448935Y-90894295D02*
X157410839Y-90856200D01*
X157410839Y-90856200D02*
X157448935Y-90818104D01*
X157448935Y-90818104D02*
X157448935Y-90894295D01*
X157982268Y-90094295D02*
X158058458Y-90094295D01*
X158058458Y-90094295D02*
X158134649Y-90132390D01*
X158134649Y-90132390D02*
X158172744Y-90170485D01*
X158172744Y-90170485D02*
X158210839Y-90246676D01*
X158210839Y-90246676D02*
X158248934Y-90399057D01*
X158248934Y-90399057D02*
X158248934Y-90589533D01*
X158248934Y-90589533D02*
X158210839Y-90741914D01*
X158210839Y-90741914D02*
X158172744Y-90818104D01*
X158172744Y-90818104D02*
X158134649Y-90856200D01*
X158134649Y-90856200D02*
X158058458Y-90894295D01*
X158058458Y-90894295D02*
X157982268Y-90894295D01*
X157982268Y-90894295D02*
X157906077Y-90856200D01*
X157906077Y-90856200D02*
X157867982Y-90818104D01*
X157867982Y-90818104D02*
X157829887Y-90741914D01*
X157829887Y-90741914D02*
X157791791Y-90589533D01*
X157791791Y-90589533D02*
X157791791Y-90399057D01*
X157791791Y-90399057D02*
X157829887Y-90246676D01*
X157829887Y-90246676D02*
X157867982Y-90170485D01*
X157867982Y-90170485D02*
X157906077Y-90132390D01*
X157906077Y-90132390D02*
X157982268Y-90094295D01*
X140496551Y-88869819D02*
X140496551Y-87869819D01*
X140496551Y-87869819D02*
X140829884Y-88584104D01*
X140829884Y-88584104D02*
X141163217Y-87869819D01*
X141163217Y-87869819D02*
X141163217Y-88869819D01*
X142067979Y-88869819D02*
X142067979Y-88346009D01*
X142067979Y-88346009D02*
X142020360Y-88250771D01*
X142020360Y-88250771D02*
X141925122Y-88203152D01*
X141925122Y-88203152D02*
X141734646Y-88203152D01*
X141734646Y-88203152D02*
X141639408Y-88250771D01*
X142067979Y-88822200D02*
X141972741Y-88869819D01*
X141972741Y-88869819D02*
X141734646Y-88869819D01*
X141734646Y-88869819D02*
X141639408Y-88822200D01*
X141639408Y-88822200D02*
X141591789Y-88726961D01*
X141591789Y-88726961D02*
X141591789Y-88631723D01*
X141591789Y-88631723D02*
X141639408Y-88536485D01*
X141639408Y-88536485D02*
X141734646Y-88488866D01*
X141734646Y-88488866D02*
X141972741Y-88488866D01*
X141972741Y-88488866D02*
X142067979Y-88441247D01*
X142544170Y-88869819D02*
X142544170Y-88203152D01*
X142544170Y-88393628D02*
X142591789Y-88298390D01*
X142591789Y-88298390D02*
X142639408Y-88250771D01*
X142639408Y-88250771D02*
X142734646Y-88203152D01*
X142734646Y-88203152D02*
X142829884Y-88203152D01*
X143163218Y-88869819D02*
X143163218Y-87869819D01*
X143258456Y-88488866D02*
X143544170Y-88869819D01*
X143544170Y-88203152D02*
X143163218Y-88584104D01*
X144401313Y-88203152D02*
X144401313Y-88869819D01*
X143972742Y-88203152D02*
X143972742Y-88726961D01*
X143972742Y-88726961D02*
X144020361Y-88822200D01*
X144020361Y-88822200D02*
X144115599Y-88869819D01*
X144115599Y-88869819D02*
X144258456Y-88869819D01*
X144258456Y-88869819D02*
X144353694Y-88822200D01*
X144353694Y-88822200D02*
X144401313Y-88774580D01*
X144829885Y-88822200D02*
X144925123Y-88869819D01*
X144925123Y-88869819D02*
X145115599Y-88869819D01*
X145115599Y-88869819D02*
X145210837Y-88822200D01*
X145210837Y-88822200D02*
X145258456Y-88726961D01*
X145258456Y-88726961D02*
X145258456Y-88679342D01*
X145258456Y-88679342D02*
X145210837Y-88584104D01*
X145210837Y-88584104D02*
X145115599Y-88536485D01*
X145115599Y-88536485D02*
X144972742Y-88536485D01*
X144972742Y-88536485D02*
X144877504Y-88488866D01*
X144877504Y-88488866D02*
X144829885Y-88393628D01*
X144829885Y-88393628D02*
X144829885Y-88346009D01*
X144829885Y-88346009D02*
X144877504Y-88250771D01*
X144877504Y-88250771D02*
X144972742Y-88203152D01*
X144972742Y-88203152D02*
X145115599Y-88203152D01*
X145115599Y-88203152D02*
X145210837Y-88250771D01*
X147020361Y-88869819D02*
X146687028Y-88393628D01*
X146448933Y-88869819D02*
X146448933Y-87869819D01*
X146448933Y-87869819D02*
X146829885Y-87869819D01*
X146829885Y-87869819D02*
X146925123Y-87917438D01*
X146925123Y-87917438D02*
X146972742Y-87965057D01*
X146972742Y-87965057D02*
X147020361Y-88060295D01*
X147020361Y-88060295D02*
X147020361Y-88203152D01*
X147020361Y-88203152D02*
X146972742Y-88298390D01*
X146972742Y-88298390D02*
X146925123Y-88346009D01*
X146925123Y-88346009D02*
X146829885Y-88393628D01*
X146829885Y-88393628D02*
X146448933Y-88393628D01*
X147877504Y-88869819D02*
X147877504Y-88346009D01*
X147877504Y-88346009D02*
X147829885Y-88250771D01*
X147829885Y-88250771D02*
X147734647Y-88203152D01*
X147734647Y-88203152D02*
X147544171Y-88203152D01*
X147544171Y-88203152D02*
X147448933Y-88250771D01*
X147877504Y-88822200D02*
X147782266Y-88869819D01*
X147782266Y-88869819D02*
X147544171Y-88869819D01*
X147544171Y-88869819D02*
X147448933Y-88822200D01*
X147448933Y-88822200D02*
X147401314Y-88726961D01*
X147401314Y-88726961D02*
X147401314Y-88631723D01*
X147401314Y-88631723D02*
X147448933Y-88536485D01*
X147448933Y-88536485D02*
X147544171Y-88488866D01*
X147544171Y-88488866D02*
X147782266Y-88488866D01*
X147782266Y-88488866D02*
X147877504Y-88441247D01*
X148782266Y-88203152D02*
X148782266Y-88869819D01*
X148353695Y-88203152D02*
X148353695Y-88726961D01*
X148353695Y-88726961D02*
X148401314Y-88822200D01*
X148401314Y-88822200D02*
X148496552Y-88869819D01*
X148496552Y-88869819D02*
X148639409Y-88869819D01*
X148639409Y-88869819D02*
X148734647Y-88822200D01*
X148734647Y-88822200D02*
X148782266Y-88774580D01*
X149115600Y-88203152D02*
X149496552Y-88203152D01*
X149258457Y-87869819D02*
X149258457Y-88726961D01*
X149258457Y-88726961D02*
X149306076Y-88822200D01*
X149306076Y-88822200D02*
X149401314Y-88869819D01*
X149401314Y-88869819D02*
X149496552Y-88869819D01*
X149972743Y-88869819D02*
X149877505Y-88822200D01*
X149877505Y-88822200D02*
X149829886Y-88774580D01*
X149829886Y-88774580D02*
X149782267Y-88679342D01*
X149782267Y-88679342D02*
X149782267Y-88393628D01*
X149782267Y-88393628D02*
X149829886Y-88298390D01*
X149829886Y-88298390D02*
X149877505Y-88250771D01*
X149877505Y-88250771D02*
X149972743Y-88203152D01*
X149972743Y-88203152D02*
X150115600Y-88203152D01*
X150115600Y-88203152D02*
X150210838Y-88250771D01*
X150210838Y-88250771D02*
X150258457Y-88298390D01*
X150258457Y-88298390D02*
X150306076Y-88393628D01*
X150306076Y-88393628D02*
X150306076Y-88679342D01*
X150306076Y-88679342D02*
X150258457Y-88774580D01*
X150258457Y-88774580D02*
X150210838Y-88822200D01*
X150210838Y-88822200D02*
X150115600Y-88869819D01*
X150115600Y-88869819D02*
X149972743Y-88869819D01*
X150734648Y-88203152D02*
X150734648Y-89203152D01*
X150734648Y-88250771D02*
X150829886Y-88203152D01*
X150829886Y-88203152D02*
X151020362Y-88203152D01*
X151020362Y-88203152D02*
X151115600Y-88250771D01*
X151115600Y-88250771D02*
X151163219Y-88298390D01*
X151163219Y-88298390D02*
X151210838Y-88393628D01*
X151210838Y-88393628D02*
X151210838Y-88679342D01*
X151210838Y-88679342D02*
X151163219Y-88774580D01*
X151163219Y-88774580D02*
X151115600Y-88822200D01*
X151115600Y-88822200D02*
X151020362Y-88869819D01*
X151020362Y-88869819D02*
X150829886Y-88869819D01*
X150829886Y-88869819D02*
X150734648Y-88822200D01*
X152067981Y-88203152D02*
X152067981Y-88869819D01*
X151639410Y-88203152D02*
X151639410Y-88726961D01*
X151639410Y-88726961D02*
X151687029Y-88822200D01*
X151687029Y-88822200D02*
X151782267Y-88869819D01*
X151782267Y-88869819D02*
X151925124Y-88869819D01*
X151925124Y-88869819D02*
X152020362Y-88822200D01*
X152020362Y-88822200D02*
X152067981Y-88774580D01*
X152544172Y-88869819D02*
X152544172Y-88203152D01*
X152544172Y-88393628D02*
X152591791Y-88298390D01*
X152591791Y-88298390D02*
X152639410Y-88250771D01*
X152639410Y-88250771D02*
X152734648Y-88203152D01*
X152734648Y-88203152D02*
X152829886Y-88203152D01*
X153306077Y-88869819D02*
X153210839Y-88822200D01*
X153210839Y-88822200D02*
X153163220Y-88774580D01*
X153163220Y-88774580D02*
X153115601Y-88679342D01*
X153115601Y-88679342D02*
X153115601Y-88393628D01*
X153115601Y-88393628D02*
X153163220Y-88298390D01*
X153163220Y-88298390D02*
X153210839Y-88250771D01*
X153210839Y-88250771D02*
X153306077Y-88203152D01*
X153306077Y-88203152D02*
X153448934Y-88203152D01*
X153448934Y-88203152D02*
X153544172Y-88250771D01*
X153544172Y-88250771D02*
X153591791Y-88298390D01*
X153591791Y-88298390D02*
X153639410Y-88393628D01*
X153639410Y-88393628D02*
X153639410Y-88679342D01*
X153639410Y-88679342D02*
X153591791Y-88774580D01*
X153591791Y-88774580D02*
X153544172Y-88822200D01*
X153544172Y-88822200D02*
X153448934Y-88869819D01*
X153448934Y-88869819D02*
X153306077Y-88869819D01*
X154782268Y-87965057D02*
X154829887Y-87917438D01*
X154829887Y-87917438D02*
X154925125Y-87869819D01*
X154925125Y-87869819D02*
X155163220Y-87869819D01*
X155163220Y-87869819D02*
X155258458Y-87917438D01*
X155258458Y-87917438D02*
X155306077Y-87965057D01*
X155306077Y-87965057D02*
X155353696Y-88060295D01*
X155353696Y-88060295D02*
X155353696Y-88155533D01*
X155353696Y-88155533D02*
X155306077Y-88298390D01*
X155306077Y-88298390D02*
X154734649Y-88869819D01*
X154734649Y-88869819D02*
X155353696Y-88869819D01*
X155972744Y-87869819D02*
X156067982Y-87869819D01*
X156067982Y-87869819D02*
X156163220Y-87917438D01*
X156163220Y-87917438D02*
X156210839Y-87965057D01*
X156210839Y-87965057D02*
X156258458Y-88060295D01*
X156258458Y-88060295D02*
X156306077Y-88250771D01*
X156306077Y-88250771D02*
X156306077Y-88488866D01*
X156306077Y-88488866D02*
X156258458Y-88679342D01*
X156258458Y-88679342D02*
X156210839Y-88774580D01*
X156210839Y-88774580D02*
X156163220Y-88822200D01*
X156163220Y-88822200D02*
X156067982Y-88869819D01*
X156067982Y-88869819D02*
X155972744Y-88869819D01*
X155972744Y-88869819D02*
X155877506Y-88822200D01*
X155877506Y-88822200D02*
X155829887Y-88774580D01*
X155829887Y-88774580D02*
X155782268Y-88679342D01*
X155782268Y-88679342D02*
X155734649Y-88488866D01*
X155734649Y-88488866D02*
X155734649Y-88250771D01*
X155734649Y-88250771D02*
X155782268Y-88060295D01*
X155782268Y-88060295D02*
X155829887Y-87965057D01*
X155829887Y-87965057D02*
X155877506Y-87917438D01*
X155877506Y-87917438D02*
X155972744Y-87869819D01*
X156687030Y-87965057D02*
X156734649Y-87917438D01*
X156734649Y-87917438D02*
X156829887Y-87869819D01*
X156829887Y-87869819D02*
X157067982Y-87869819D01*
X157067982Y-87869819D02*
X157163220Y-87917438D01*
X157163220Y-87917438D02*
X157210839Y-87965057D01*
X157210839Y-87965057D02*
X157258458Y-88060295D01*
X157258458Y-88060295D02*
X157258458Y-88155533D01*
X157258458Y-88155533D02*
X157210839Y-88298390D01*
X157210839Y-88298390D02*
X156639411Y-88869819D01*
X156639411Y-88869819D02*
X157258458Y-88869819D01*
X158163220Y-87869819D02*
X157687030Y-87869819D01*
X157687030Y-87869819D02*
X157639411Y-88346009D01*
X157639411Y-88346009D02*
X157687030Y-88298390D01*
X157687030Y-88298390D02*
X157782268Y-88250771D01*
X157782268Y-88250771D02*
X158020363Y-88250771D01*
X158020363Y-88250771D02*
X158115601Y-88298390D01*
X158115601Y-88298390D02*
X158163220Y-88346009D01*
X158163220Y-88346009D02*
X158210839Y-88441247D01*
X158210839Y-88441247D02*
X158210839Y-88679342D01*
X158210839Y-88679342D02*
X158163220Y-88774580D01*
X158163220Y-88774580D02*
X158115601Y-88822200D01*
X158115601Y-88822200D02*
X158020363Y-88869819D01*
X158020363Y-88869819D02*
X157782268Y-88869819D01*
X157782268Y-88869819D02*
X157687030Y-88822200D01*
X157687030Y-88822200D02*
X157639411Y-88774580D01*
D11*
X138431204Y-86229400D02*
X138645490Y-86300828D01*
X138645490Y-86300828D02*
X139002632Y-86300828D01*
X139002632Y-86300828D02*
X139145490Y-86229400D01*
X139145490Y-86229400D02*
X139216918Y-86157971D01*
X139216918Y-86157971D02*
X139288347Y-86015114D01*
X139288347Y-86015114D02*
X139288347Y-85872257D01*
X139288347Y-85872257D02*
X139216918Y-85729400D01*
X139216918Y-85729400D02*
X139145490Y-85657971D01*
X139145490Y-85657971D02*
X139002632Y-85586542D01*
X139002632Y-85586542D02*
X138716918Y-85515114D01*
X138716918Y-85515114D02*
X138574061Y-85443685D01*
X138574061Y-85443685D02*
X138502632Y-85372257D01*
X138502632Y-85372257D02*
X138431204Y-85229400D01*
X138431204Y-85229400D02*
X138431204Y-85086542D01*
X138431204Y-85086542D02*
X138502632Y-84943685D01*
X138502632Y-84943685D02*
X138574061Y-84872257D01*
X138574061Y-84872257D02*
X138716918Y-84800828D01*
X138716918Y-84800828D02*
X139074061Y-84800828D01*
X139074061Y-84800828D02*
X139288347Y-84872257D01*
X139716918Y-84800828D02*
X140216918Y-86300828D01*
X140216918Y-86300828D02*
X140716918Y-84800828D01*
X141216917Y-86300828D02*
X141216917Y-84800828D01*
X141931203Y-85729400D02*
X143074061Y-85729400D01*
X143645489Y-84800828D02*
X144574061Y-84800828D01*
X144574061Y-84800828D02*
X144074061Y-85372257D01*
X144074061Y-85372257D02*
X144288346Y-85372257D01*
X144288346Y-85372257D02*
X144431204Y-85443685D01*
X144431204Y-85443685D02*
X144502632Y-85515114D01*
X144502632Y-85515114D02*
X144574061Y-85657971D01*
X144574061Y-85657971D02*
X144574061Y-86015114D01*
X144574061Y-86015114D02*
X144502632Y-86157971D01*
X144502632Y-86157971D02*
X144431204Y-86229400D01*
X144431204Y-86229400D02*
X144288346Y-86300828D01*
X144288346Y-86300828D02*
X143859775Y-86300828D01*
X143859775Y-86300828D02*
X143716918Y-86229400D01*
X143716918Y-86229400D02*
X143645489Y-86157971D01*
X145145489Y-84943685D02*
X145216917Y-84872257D01*
X145216917Y-84872257D02*
X145359775Y-84800828D01*
X145359775Y-84800828D02*
X145716917Y-84800828D01*
X145716917Y-84800828D02*
X145859775Y-84872257D01*
X145859775Y-84872257D02*
X145931203Y-84943685D01*
X145931203Y-84943685D02*
X146002632Y-85086542D01*
X146002632Y-85086542D02*
X146002632Y-85229400D01*
X146002632Y-85229400D02*
X145931203Y-85443685D01*
X145931203Y-85443685D02*
X145074060Y-86300828D01*
X145074060Y-86300828D02*
X146002632Y-86300828D01*
X146859774Y-85443685D02*
X146716917Y-85372257D01*
X146716917Y-85372257D02*
X146645488Y-85300828D01*
X146645488Y-85300828D02*
X146574060Y-85157971D01*
X146574060Y-85157971D02*
X146574060Y-85086542D01*
X146574060Y-85086542D02*
X146645488Y-84943685D01*
X146645488Y-84943685D02*
X146716917Y-84872257D01*
X146716917Y-84872257D02*
X146859774Y-84800828D01*
X146859774Y-84800828D02*
X147145488Y-84800828D01*
X147145488Y-84800828D02*
X147288346Y-84872257D01*
X147288346Y-84872257D02*
X147359774Y-84943685D01*
X147359774Y-84943685D02*
X147431203Y-85086542D01*
X147431203Y-85086542D02*
X147431203Y-85157971D01*
X147431203Y-85157971D02*
X147359774Y-85300828D01*
X147359774Y-85300828D02*
X147288346Y-85372257D01*
X147288346Y-85372257D02*
X147145488Y-85443685D01*
X147145488Y-85443685D02*
X146859774Y-85443685D01*
X146859774Y-85443685D02*
X146716917Y-85515114D01*
X146716917Y-85515114D02*
X146645488Y-85586542D01*
X146645488Y-85586542D02*
X146574060Y-85729400D01*
X146574060Y-85729400D02*
X146574060Y-86015114D01*
X146574060Y-86015114D02*
X146645488Y-86157971D01*
X146645488Y-86157971D02*
X146716917Y-86229400D01*
X146716917Y-86229400D02*
X146859774Y-86300828D01*
X146859774Y-86300828D02*
X147145488Y-86300828D01*
X147145488Y-86300828D02*
X147288346Y-86229400D01*
X147288346Y-86229400D02*
X147359774Y-86157971D01*
X147359774Y-86157971D02*
X147431203Y-86015114D01*
X147431203Y-86015114D02*
X147431203Y-85729400D01*
X147431203Y-85729400D02*
X147359774Y-85586542D01*
X147359774Y-85586542D02*
X147288346Y-85515114D01*
X147288346Y-85515114D02*
X147145488Y-85443685D01*
X149216916Y-86300828D02*
X149216916Y-84800828D01*
X149216916Y-84800828D02*
X149788345Y-84800828D01*
X149788345Y-84800828D02*
X149931202Y-84872257D01*
X149931202Y-84872257D02*
X150002631Y-84943685D01*
X150002631Y-84943685D02*
X150074059Y-85086542D01*
X150074059Y-85086542D02*
X150074059Y-85300828D01*
X150074059Y-85300828D02*
X150002631Y-85443685D01*
X150002631Y-85443685D02*
X149931202Y-85515114D01*
X149931202Y-85515114D02*
X149788345Y-85586542D01*
X149788345Y-85586542D02*
X149216916Y-85586542D01*
X150716916Y-86300828D02*
X150716916Y-85300828D01*
X150716916Y-84800828D02*
X150645488Y-84872257D01*
X150645488Y-84872257D02*
X150716916Y-84943685D01*
X150716916Y-84943685D02*
X150788345Y-84872257D01*
X150788345Y-84872257D02*
X150716916Y-84800828D01*
X150716916Y-84800828D02*
X150716916Y-84943685D01*
X152074060Y-86229400D02*
X151931202Y-86300828D01*
X151931202Y-86300828D02*
X151645488Y-86300828D01*
X151645488Y-86300828D02*
X151502631Y-86229400D01*
X151502631Y-86229400D02*
X151431202Y-86157971D01*
X151431202Y-86157971D02*
X151359774Y-86015114D01*
X151359774Y-86015114D02*
X151359774Y-85586542D01*
X151359774Y-85586542D02*
X151431202Y-85443685D01*
X151431202Y-85443685D02*
X151502631Y-85372257D01*
X151502631Y-85372257D02*
X151645488Y-85300828D01*
X151645488Y-85300828D02*
X151931202Y-85300828D01*
X151931202Y-85300828D02*
X152074060Y-85372257D01*
X152931202Y-86300828D02*
X152788345Y-86229400D01*
X152788345Y-86229400D02*
X152716916Y-86157971D01*
X152716916Y-86157971D02*
X152645488Y-86015114D01*
X152645488Y-86015114D02*
X152645488Y-85586542D01*
X152645488Y-85586542D02*
X152716916Y-85443685D01*
X152716916Y-85443685D02*
X152788345Y-85372257D01*
X152788345Y-85372257D02*
X152931202Y-85300828D01*
X152931202Y-85300828D02*
X153145488Y-85300828D01*
X153145488Y-85300828D02*
X153288345Y-85372257D01*
X153288345Y-85372257D02*
X153359774Y-85443685D01*
X153359774Y-85443685D02*
X153431202Y-85586542D01*
X153431202Y-85586542D02*
X153431202Y-86015114D01*
X153431202Y-86015114D02*
X153359774Y-86157971D01*
X153359774Y-86157971D02*
X153288345Y-86229400D01*
X153288345Y-86229400D02*
X153145488Y-86300828D01*
X153145488Y-86300828D02*
X152931202Y-86300828D01*
X154931202Y-86300828D02*
X154431202Y-85586542D01*
X154074059Y-86300828D02*
X154074059Y-84800828D01*
X154074059Y-84800828D02*
X154645488Y-84800828D01*
X154645488Y-84800828D02*
X154788345Y-84872257D01*
X154788345Y-84872257D02*
X154859774Y-84943685D01*
X154859774Y-84943685D02*
X154931202Y-85086542D01*
X154931202Y-85086542D02*
X154931202Y-85300828D01*
X154931202Y-85300828D02*
X154859774Y-85443685D01*
X154859774Y-85443685D02*
X154788345Y-85515114D01*
X154788345Y-85515114D02*
X154645488Y-85586542D01*
X154645488Y-85586542D02*
X154074059Y-85586542D01*
X155859774Y-84800828D02*
X156145488Y-84800828D01*
X156145488Y-84800828D02*
X156288345Y-84872257D01*
X156288345Y-84872257D02*
X156431202Y-85015114D01*
X156431202Y-85015114D02*
X156502631Y-85300828D01*
X156502631Y-85300828D02*
X156502631Y-85800828D01*
X156502631Y-85800828D02*
X156431202Y-86086542D01*
X156431202Y-86086542D02*
X156288345Y-86229400D01*
X156288345Y-86229400D02*
X156145488Y-86300828D01*
X156145488Y-86300828D02*
X155859774Y-86300828D01*
X155859774Y-86300828D02*
X155716917Y-86229400D01*
X155716917Y-86229400D02*
X155574059Y-86086542D01*
X155574059Y-86086542D02*
X155502631Y-85800828D01*
X155502631Y-85800828D02*
X155502631Y-85300828D01*
X155502631Y-85300828D02*
X155574059Y-85015114D01*
X155574059Y-85015114D02*
X155716917Y-84872257D01*
X155716917Y-84872257D02*
X155859774Y-84800828D01*
X157145488Y-86300828D02*
X157145488Y-84800828D01*
X157145488Y-84800828D02*
X157645488Y-85872257D01*
X157645488Y-85872257D02*
X158145488Y-84800828D01*
X158145488Y-84800828D02*
X158145488Y-86300828D01*
D10*
X133628095Y-116084819D02*
X133628095Y-116894342D01*
X133628095Y-116894342D02*
X133675714Y-116989580D01*
X133675714Y-116989580D02*
X133723333Y-117037200D01*
X133723333Y-117037200D02*
X133818571Y-117084819D01*
X133818571Y-117084819D02*
X134009047Y-117084819D01*
X134009047Y-117084819D02*
X134104285Y-117037200D01*
X134104285Y-117037200D02*
X134151904Y-116989580D01*
X134151904Y-116989580D02*
X134199523Y-116894342D01*
X134199523Y-116894342D02*
X134199523Y-116084819D01*
X135199523Y-117084819D02*
X134628095Y-117084819D01*
X134913809Y-117084819D02*
X134913809Y-116084819D01*
X134913809Y-116084819D02*
X134818571Y-116227676D01*
X134818571Y-116227676D02*
X134723333Y-116322914D01*
X134723333Y-116322914D02*
X134628095Y-116370533D01*
X146603372Y-133261494D02*
X146522560Y-133288431D01*
X146522560Y-133288431D02*
X146441748Y-133369243D01*
X146441748Y-133369243D02*
X146387873Y-133476993D01*
X146387873Y-133476993D02*
X146387873Y-133584742D01*
X146387873Y-133584742D02*
X146414810Y-133665555D01*
X146414810Y-133665555D02*
X146495623Y-133800242D01*
X146495623Y-133800242D02*
X146576435Y-133881054D01*
X146576435Y-133881054D02*
X146711122Y-133961866D01*
X146711122Y-133961866D02*
X146791934Y-133988803D01*
X146791934Y-133988803D02*
X146899684Y-133988803D01*
X146899684Y-133988803D02*
X147007433Y-133934929D01*
X147007433Y-133934929D02*
X147061308Y-133881054D01*
X147061308Y-133881054D02*
X147115183Y-133773304D01*
X147115183Y-133773304D02*
X147115183Y-133719429D01*
X147115183Y-133719429D02*
X146926621Y-133530868D01*
X146926621Y-133530868D02*
X146818871Y-133638617D01*
X147411494Y-133530868D02*
X146845809Y-132965182D01*
X146845809Y-132965182D02*
X147061308Y-132749683D01*
X147061308Y-132749683D02*
X147142120Y-132722746D01*
X147142120Y-132722746D02*
X147195995Y-132722746D01*
X147195995Y-132722746D02*
X147276807Y-132749683D01*
X147276807Y-132749683D02*
X147357619Y-132830495D01*
X147357619Y-132830495D02*
X147384557Y-132911307D01*
X147384557Y-132911307D02*
X147384557Y-132965182D01*
X147384557Y-132965182D02*
X147357619Y-133045994D01*
X147357619Y-133045994D02*
X147142120Y-133261494D01*
X147438432Y-132480309D02*
X147438432Y-132426434D01*
X147438432Y-132426434D02*
X147465369Y-132345622D01*
X147465369Y-132345622D02*
X147600056Y-132210935D01*
X147600056Y-132210935D02*
X147680868Y-132183998D01*
X147680868Y-132183998D02*
X147734743Y-132183998D01*
X147734743Y-132183998D02*
X147815555Y-132210935D01*
X147815555Y-132210935D02*
X147869430Y-132264810D01*
X147869430Y-132264810D02*
X147923305Y-132372559D01*
X147923305Y-132372559D02*
X147923305Y-133019057D01*
X147923305Y-133019057D02*
X148273491Y-132668871D01*
X120379998Y-126164868D02*
X120299185Y-126191805D01*
X120299185Y-126191805D02*
X120218373Y-126272618D01*
X120218373Y-126272618D02*
X120164498Y-126380367D01*
X120164498Y-126380367D02*
X120164498Y-126488117D01*
X120164498Y-126488117D02*
X120191436Y-126568929D01*
X120191436Y-126568929D02*
X120272248Y-126703616D01*
X120272248Y-126703616D02*
X120353060Y-126784428D01*
X120353060Y-126784428D02*
X120487747Y-126865241D01*
X120487747Y-126865241D02*
X120568560Y-126892178D01*
X120568560Y-126892178D02*
X120676309Y-126892178D01*
X120676309Y-126892178D02*
X120784059Y-126838303D01*
X120784059Y-126838303D02*
X120837934Y-126784428D01*
X120837934Y-126784428D02*
X120891808Y-126676679D01*
X120891808Y-126676679D02*
X120891808Y-126622804D01*
X120891808Y-126622804D02*
X120703247Y-126434242D01*
X120703247Y-126434242D02*
X120595497Y-126541992D01*
X121188120Y-126434242D02*
X120622434Y-125868557D01*
X120622434Y-125868557D02*
X120837934Y-125653057D01*
X120837934Y-125653057D02*
X120918746Y-125626120D01*
X120918746Y-125626120D02*
X120972621Y-125626120D01*
X120972621Y-125626120D02*
X121053433Y-125653057D01*
X121053433Y-125653057D02*
X121134245Y-125733870D01*
X121134245Y-125733870D02*
X121161182Y-125814682D01*
X121161182Y-125814682D02*
X121161182Y-125868557D01*
X121161182Y-125868557D02*
X121134245Y-125949369D01*
X121134245Y-125949369D02*
X120918746Y-126164868D01*
X121215057Y-125383683D02*
X121215057Y-125329809D01*
X121215057Y-125329809D02*
X121241995Y-125248996D01*
X121241995Y-125248996D02*
X121376682Y-125114309D01*
X121376682Y-125114309D02*
X121457494Y-125087372D01*
X121457494Y-125087372D02*
X121511369Y-125087372D01*
X121511369Y-125087372D02*
X121592181Y-125114309D01*
X121592181Y-125114309D02*
X121646056Y-125168184D01*
X121646056Y-125168184D02*
X121699930Y-125275934D01*
X121699930Y-125275934D02*
X121699930Y-125922431D01*
X121699930Y-125922431D02*
X122050117Y-125572245D01*
X122050117Y-124925747D02*
X121969305Y-124952685D01*
X121969305Y-124952685D02*
X121915430Y-124952685D01*
X121915430Y-124952685D02*
X121834618Y-124925747D01*
X121834618Y-124925747D02*
X121807680Y-124898810D01*
X121807680Y-124898810D02*
X121780743Y-124817998D01*
X121780743Y-124817998D02*
X121780743Y-124764123D01*
X121780743Y-124764123D02*
X121807680Y-124683311D01*
X121807680Y-124683311D02*
X121915430Y-124575561D01*
X121915430Y-124575561D02*
X121996242Y-124548624D01*
X121996242Y-124548624D02*
X122050117Y-124548624D01*
X122050117Y-124548624D02*
X122130929Y-124575561D01*
X122130929Y-124575561D02*
X122157866Y-124602499D01*
X122157866Y-124602499D02*
X122184804Y-124683311D01*
X122184804Y-124683311D02*
X122184804Y-124737186D01*
X122184804Y-124737186D02*
X122157866Y-124817998D01*
X122157866Y-124817998D02*
X122050117Y-124925747D01*
X122050117Y-124925747D02*
X122023179Y-125006560D01*
X122023179Y-125006560D02*
X122023179Y-125060434D01*
X122023179Y-125060434D02*
X122050117Y-125141247D01*
X122050117Y-125141247D02*
X122157866Y-125248996D01*
X122157866Y-125248996D02*
X122238679Y-125275934D01*
X122238679Y-125275934D02*
X122292553Y-125275934D01*
X122292553Y-125275934D02*
X122373366Y-125248996D01*
X122373366Y-125248996D02*
X122481115Y-125141247D01*
X122481115Y-125141247D02*
X122508053Y-125060434D01*
X122508053Y-125060434D02*
X122508053Y-125006560D01*
X122508053Y-125006560D02*
X122481115Y-124925747D01*
X122481115Y-124925747D02*
X122373366Y-124817998D01*
X122373366Y-124817998D02*
X122292553Y-124791060D01*
X122292553Y-124791060D02*
X122238679Y-124791060D01*
X122238679Y-124791060D02*
X122157866Y-124817998D01*
X120379998Y-113210868D02*
X120299185Y-113237805D01*
X120299185Y-113237805D02*
X120218373Y-113318618D01*
X120218373Y-113318618D02*
X120164498Y-113426367D01*
X120164498Y-113426367D02*
X120164498Y-113534117D01*
X120164498Y-113534117D02*
X120191436Y-113614929D01*
X120191436Y-113614929D02*
X120272248Y-113749616D01*
X120272248Y-113749616D02*
X120353060Y-113830428D01*
X120353060Y-113830428D02*
X120487747Y-113911241D01*
X120487747Y-113911241D02*
X120568560Y-113938178D01*
X120568560Y-113938178D02*
X120676309Y-113938178D01*
X120676309Y-113938178D02*
X120784059Y-113884303D01*
X120784059Y-113884303D02*
X120837934Y-113830428D01*
X120837934Y-113830428D02*
X120891808Y-113722679D01*
X120891808Y-113722679D02*
X120891808Y-113668804D01*
X120891808Y-113668804D02*
X120703247Y-113480242D01*
X120703247Y-113480242D02*
X120595497Y-113587992D01*
X121188120Y-113480242D02*
X120622434Y-112914557D01*
X120622434Y-112914557D02*
X120837934Y-112699057D01*
X120837934Y-112699057D02*
X120918746Y-112672120D01*
X120918746Y-112672120D02*
X120972621Y-112672120D01*
X120972621Y-112672120D02*
X121053433Y-112699057D01*
X121053433Y-112699057D02*
X121134245Y-112779870D01*
X121134245Y-112779870D02*
X121161182Y-112860682D01*
X121161182Y-112860682D02*
X121161182Y-112914557D01*
X121161182Y-112914557D02*
X121134245Y-112995369D01*
X121134245Y-112995369D02*
X120918746Y-113210868D01*
X121215057Y-112429683D02*
X121215057Y-112375809D01*
X121215057Y-112375809D02*
X121241995Y-112294996D01*
X121241995Y-112294996D02*
X121376682Y-112160309D01*
X121376682Y-112160309D02*
X121457494Y-112133372D01*
X121457494Y-112133372D02*
X121511369Y-112133372D01*
X121511369Y-112133372D02*
X121592181Y-112160309D01*
X121592181Y-112160309D02*
X121646056Y-112214184D01*
X121646056Y-112214184D02*
X121699930Y-112321934D01*
X121699930Y-112321934D02*
X121699930Y-112968431D01*
X121699930Y-112968431D02*
X122050117Y-112618245D01*
X121753805Y-111890935D02*
X121753805Y-111837060D01*
X121753805Y-111837060D02*
X121780743Y-111756248D01*
X121780743Y-111756248D02*
X121915430Y-111621561D01*
X121915430Y-111621561D02*
X121996242Y-111594624D01*
X121996242Y-111594624D02*
X122050117Y-111594624D01*
X122050117Y-111594624D02*
X122130929Y-111621561D01*
X122130929Y-111621561D02*
X122184804Y-111675436D01*
X122184804Y-111675436D02*
X122238679Y-111783186D01*
X122238679Y-111783186D02*
X122238679Y-112429683D01*
X122238679Y-112429683D02*
X122588865Y-112079497D01*
X146503372Y-115481494D02*
X146422560Y-115508431D01*
X146422560Y-115508431D02*
X146341748Y-115589243D01*
X146341748Y-115589243D02*
X146287873Y-115696993D01*
X146287873Y-115696993D02*
X146287873Y-115804742D01*
X146287873Y-115804742D02*
X146314810Y-115885555D01*
X146314810Y-115885555D02*
X146395623Y-116020242D01*
X146395623Y-116020242D02*
X146476435Y-116101054D01*
X146476435Y-116101054D02*
X146611122Y-116181866D01*
X146611122Y-116181866D02*
X146691934Y-116208803D01*
X146691934Y-116208803D02*
X146799684Y-116208803D01*
X146799684Y-116208803D02*
X146907433Y-116154929D01*
X146907433Y-116154929D02*
X146961308Y-116101054D01*
X146961308Y-116101054D02*
X147015183Y-115993304D01*
X147015183Y-115993304D02*
X147015183Y-115939429D01*
X147015183Y-115939429D02*
X146826621Y-115750868D01*
X146826621Y-115750868D02*
X146718871Y-115858617D01*
X147311494Y-115750868D02*
X146745809Y-115185182D01*
X146745809Y-115185182D02*
X146961308Y-114969683D01*
X146961308Y-114969683D02*
X147042120Y-114942746D01*
X147042120Y-114942746D02*
X147095995Y-114942746D01*
X147095995Y-114942746D02*
X147176807Y-114969683D01*
X147176807Y-114969683D02*
X147257619Y-115050495D01*
X147257619Y-115050495D02*
X147284557Y-115131307D01*
X147284557Y-115131307D02*
X147284557Y-115185182D01*
X147284557Y-115185182D02*
X147257619Y-115265994D01*
X147257619Y-115265994D02*
X147042120Y-115481494D01*
X147634743Y-114781121D02*
X147553931Y-114808059D01*
X147553931Y-114808059D02*
X147500056Y-114808059D01*
X147500056Y-114808059D02*
X147419244Y-114781121D01*
X147419244Y-114781121D02*
X147392306Y-114754184D01*
X147392306Y-114754184D02*
X147365369Y-114673372D01*
X147365369Y-114673372D02*
X147365369Y-114619497D01*
X147365369Y-114619497D02*
X147392306Y-114538685D01*
X147392306Y-114538685D02*
X147500056Y-114430935D01*
X147500056Y-114430935D02*
X147580868Y-114403998D01*
X147580868Y-114403998D02*
X147634743Y-114403998D01*
X147634743Y-114403998D02*
X147715555Y-114430935D01*
X147715555Y-114430935D02*
X147742493Y-114457872D01*
X147742493Y-114457872D02*
X147769430Y-114538685D01*
X147769430Y-114538685D02*
X147769430Y-114592559D01*
X147769430Y-114592559D02*
X147742493Y-114673372D01*
X147742493Y-114673372D02*
X147634743Y-114781121D01*
X147634743Y-114781121D02*
X147607806Y-114861933D01*
X147607806Y-114861933D02*
X147607806Y-114915808D01*
X147607806Y-114915808D02*
X147634743Y-114996620D01*
X147634743Y-114996620D02*
X147742493Y-115104370D01*
X147742493Y-115104370D02*
X147823305Y-115131307D01*
X147823305Y-115131307D02*
X147877180Y-115131307D01*
X147877180Y-115131307D02*
X147957992Y-115104370D01*
X147957992Y-115104370D02*
X148065741Y-114996620D01*
X148065741Y-114996620D02*
X148092679Y-114915808D01*
X148092679Y-114915808D02*
X148092679Y-114861933D01*
X148092679Y-114861933D02*
X148065741Y-114781121D01*
X148065741Y-114781121D02*
X147957992Y-114673372D01*
X147957992Y-114673372D02*
X147877180Y-114646434D01*
X147877180Y-114646434D02*
X147823305Y-114646434D01*
X147823305Y-114646434D02*
X147742493Y-114673372D01*
X121228651Y-116033710D02*
X120770716Y-115952898D01*
X120905403Y-116356959D02*
X120339717Y-115791274D01*
X120339717Y-115791274D02*
X120555216Y-115575775D01*
X120555216Y-115575775D02*
X120636029Y-115548837D01*
X120636029Y-115548837D02*
X120689903Y-115548837D01*
X120689903Y-115548837D02*
X120770716Y-115575775D01*
X120770716Y-115575775D02*
X120851528Y-115656587D01*
X120851528Y-115656587D02*
X120878465Y-115737399D01*
X120878465Y-115737399D02*
X120878465Y-115791274D01*
X120878465Y-115791274D02*
X120851528Y-115872086D01*
X120851528Y-115872086D02*
X120636029Y-116087585D01*
X120905403Y-115225588D02*
X121363338Y-115683524D01*
X121363338Y-115683524D02*
X121444151Y-115710462D01*
X121444151Y-115710462D02*
X121498025Y-115710462D01*
X121498025Y-115710462D02*
X121578838Y-115683524D01*
X121578838Y-115683524D02*
X121686587Y-115575775D01*
X121686587Y-115575775D02*
X121713525Y-115494962D01*
X121713525Y-115494962D02*
X121713525Y-115441088D01*
X121713525Y-115441088D02*
X121686587Y-115360275D01*
X121686587Y-115360275D02*
X121228651Y-114902340D01*
X122063711Y-115198651D02*
X121498025Y-114632966D01*
X121498025Y-114632966D02*
X122386959Y-114875402D01*
X122386959Y-114875402D02*
X121821274Y-114309717D01*
X133580475Y-109454200D02*
X133694761Y-109492295D01*
X133694761Y-109492295D02*
X133885237Y-109492295D01*
X133885237Y-109492295D02*
X133961428Y-109454200D01*
X133961428Y-109454200D02*
X133999523Y-109416104D01*
X133999523Y-109416104D02*
X134037618Y-109339914D01*
X134037618Y-109339914D02*
X134037618Y-109263723D01*
X134037618Y-109263723D02*
X133999523Y-109187533D01*
X133999523Y-109187533D02*
X133961428Y-109149438D01*
X133961428Y-109149438D02*
X133885237Y-109111342D01*
X133885237Y-109111342D02*
X133732856Y-109073247D01*
X133732856Y-109073247D02*
X133656666Y-109035152D01*
X133656666Y-109035152D02*
X133618571Y-108997057D01*
X133618571Y-108997057D02*
X133580475Y-108920866D01*
X133580475Y-108920866D02*
X133580475Y-108844676D01*
X133580475Y-108844676D02*
X133618571Y-108768485D01*
X133618571Y-108768485D02*
X133656666Y-108730390D01*
X133656666Y-108730390D02*
X133732856Y-108692295D01*
X133732856Y-108692295D02*
X133923333Y-108692295D01*
X133923333Y-108692295D02*
X134037618Y-108730390D01*
X134304285Y-108692295D02*
X134494761Y-109492295D01*
X134494761Y-109492295D02*
X134647142Y-108920866D01*
X134647142Y-108920866D02*
X134799523Y-109492295D01*
X134799523Y-109492295D02*
X134990000Y-108692295D01*
X135751905Y-109416104D02*
X135713809Y-109454200D01*
X135713809Y-109454200D02*
X135599524Y-109492295D01*
X135599524Y-109492295D02*
X135523333Y-109492295D01*
X135523333Y-109492295D02*
X135409047Y-109454200D01*
X135409047Y-109454200D02*
X135332857Y-109378009D01*
X135332857Y-109378009D02*
X135294762Y-109301819D01*
X135294762Y-109301819D02*
X135256666Y-109149438D01*
X135256666Y-109149438D02*
X135256666Y-109035152D01*
X135256666Y-109035152D02*
X135294762Y-108882771D01*
X135294762Y-108882771D02*
X135332857Y-108806580D01*
X135332857Y-108806580D02*
X135409047Y-108730390D01*
X135409047Y-108730390D02*
X135523333Y-108692295D01*
X135523333Y-108692295D02*
X135599524Y-108692295D01*
X135599524Y-108692295D02*
X135713809Y-108730390D01*
X135713809Y-108730390D02*
X135751905Y-108768485D01*
X136475714Y-109492295D02*
X136094762Y-109492295D01*
X136094762Y-109492295D02*
X136094762Y-108692295D01*
X136742381Y-109492295D02*
X136742381Y-108692295D01*
X137199524Y-109492295D02*
X136856666Y-109035152D01*
X137199524Y-108692295D02*
X136742381Y-109149438D01*
X120876435Y-97728431D02*
X120795623Y-97755368D01*
X120795623Y-97755368D02*
X120714811Y-97836180D01*
X120714811Y-97836180D02*
X120660936Y-97943930D01*
X120660936Y-97943930D02*
X120660936Y-98051680D01*
X120660936Y-98051680D02*
X120687873Y-98132492D01*
X120687873Y-98132492D02*
X120768685Y-98267179D01*
X120768685Y-98267179D02*
X120849498Y-98347991D01*
X120849498Y-98347991D02*
X120984185Y-98428803D01*
X120984185Y-98428803D02*
X121064997Y-98455741D01*
X121064997Y-98455741D02*
X121172746Y-98455741D01*
X121172746Y-98455741D02*
X121280496Y-98401866D01*
X121280496Y-98401866D02*
X121334371Y-98347991D01*
X121334371Y-98347991D02*
X121388246Y-98240241D01*
X121388246Y-98240241D02*
X121388246Y-98186367D01*
X121388246Y-98186367D02*
X121199684Y-97997805D01*
X121199684Y-97997805D02*
X121091934Y-98105554D01*
X121684557Y-97997805D02*
X121118872Y-97432119D01*
X121118872Y-97432119D02*
X122007806Y-97674556D01*
X122007806Y-97674556D02*
X121442120Y-97108871D01*
X122277180Y-97405182D02*
X121711494Y-96839497D01*
X121711494Y-96839497D02*
X121846181Y-96704810D01*
X121846181Y-96704810D02*
X121953931Y-96650935D01*
X121953931Y-96650935D02*
X122061680Y-96650935D01*
X122061680Y-96650935D02*
X122142493Y-96677872D01*
X122142493Y-96677872D02*
X122277180Y-96758685D01*
X122277180Y-96758685D02*
X122357992Y-96839497D01*
X122357992Y-96839497D02*
X122438804Y-96974184D01*
X122438804Y-96974184D02*
X122465741Y-97054996D01*
X122465741Y-97054996D02*
X122465741Y-97162746D01*
X122465741Y-97162746D02*
X122411867Y-97270495D01*
X122411867Y-97270495D02*
X122277180Y-97405182D01*
X146476435Y-97728431D02*
X146395623Y-97755368D01*
X146395623Y-97755368D02*
X146314811Y-97836180D01*
X146314811Y-97836180D02*
X146260936Y-97943930D01*
X146260936Y-97943930D02*
X146260936Y-98051680D01*
X146260936Y-98051680D02*
X146287873Y-98132492D01*
X146287873Y-98132492D02*
X146368685Y-98267179D01*
X146368685Y-98267179D02*
X146449498Y-98347991D01*
X146449498Y-98347991D02*
X146584185Y-98428803D01*
X146584185Y-98428803D02*
X146664997Y-98455741D01*
X146664997Y-98455741D02*
X146772746Y-98455741D01*
X146772746Y-98455741D02*
X146880496Y-98401866D01*
X146880496Y-98401866D02*
X146934371Y-98347991D01*
X146934371Y-98347991D02*
X146988246Y-98240241D01*
X146988246Y-98240241D02*
X146988246Y-98186367D01*
X146988246Y-98186367D02*
X146799684Y-97997805D01*
X146799684Y-97997805D02*
X146691934Y-98105554D01*
X147284557Y-97997805D02*
X146718872Y-97432119D01*
X146718872Y-97432119D02*
X147607806Y-97674556D01*
X147607806Y-97674556D02*
X147042120Y-97108871D01*
X147877180Y-97405182D02*
X147311494Y-96839497D01*
X147311494Y-96839497D02*
X147446181Y-96704810D01*
X147446181Y-96704810D02*
X147553931Y-96650935D01*
X147553931Y-96650935D02*
X147661680Y-96650935D01*
X147661680Y-96650935D02*
X147742493Y-96677872D01*
X147742493Y-96677872D02*
X147877180Y-96758685D01*
X147877180Y-96758685D02*
X147957992Y-96839497D01*
X147957992Y-96839497D02*
X148038804Y-96974184D01*
X148038804Y-96974184D02*
X148065741Y-97054996D01*
X148065741Y-97054996D02*
X148065741Y-97162746D01*
X148065741Y-97162746D02*
X148011867Y-97270495D01*
X148011867Y-97270495D02*
X147877180Y-97405182D01*
X146476435Y-110428431D02*
X146395623Y-110455368D01*
X146395623Y-110455368D02*
X146314811Y-110536180D01*
X146314811Y-110536180D02*
X146260936Y-110643930D01*
X146260936Y-110643930D02*
X146260936Y-110751680D01*
X146260936Y-110751680D02*
X146287873Y-110832492D01*
X146287873Y-110832492D02*
X146368685Y-110967179D01*
X146368685Y-110967179D02*
X146449498Y-111047991D01*
X146449498Y-111047991D02*
X146584185Y-111128803D01*
X146584185Y-111128803D02*
X146664997Y-111155741D01*
X146664997Y-111155741D02*
X146772746Y-111155741D01*
X146772746Y-111155741D02*
X146880496Y-111101866D01*
X146880496Y-111101866D02*
X146934371Y-111047991D01*
X146934371Y-111047991D02*
X146988246Y-110940241D01*
X146988246Y-110940241D02*
X146988246Y-110886367D01*
X146988246Y-110886367D02*
X146799684Y-110697805D01*
X146799684Y-110697805D02*
X146691934Y-110805554D01*
X147284557Y-110697805D02*
X146718872Y-110132119D01*
X146718872Y-110132119D02*
X147607806Y-110374556D01*
X147607806Y-110374556D02*
X147042120Y-109808871D01*
X147877180Y-110105182D02*
X147311494Y-109539497D01*
X147311494Y-109539497D02*
X147446181Y-109404810D01*
X147446181Y-109404810D02*
X147553931Y-109350935D01*
X147553931Y-109350935D02*
X147661680Y-109350935D01*
X147661680Y-109350935D02*
X147742493Y-109377872D01*
X147742493Y-109377872D02*
X147877180Y-109458685D01*
X147877180Y-109458685D02*
X147957992Y-109539497D01*
X147957992Y-109539497D02*
X148038804Y-109674184D01*
X148038804Y-109674184D02*
X148065741Y-109754996D01*
X148065741Y-109754996D02*
X148065741Y-109862746D01*
X148065741Y-109862746D02*
X148011867Y-109970495D01*
X148011867Y-109970495D02*
X147877180Y-110105182D01*
X120433873Y-124071240D02*
X120703247Y-123801866D01*
X120541623Y-124286739D02*
X120164499Y-123532492D01*
X120164499Y-123532492D02*
X120918746Y-123909615D01*
X120864871Y-122885994D02*
X120784059Y-122912932D01*
X120784059Y-122912932D02*
X120703247Y-122993744D01*
X120703247Y-122993744D02*
X120649372Y-123101494D01*
X120649372Y-123101494D02*
X120649372Y-123209243D01*
X120649372Y-123209243D02*
X120676310Y-123290055D01*
X120676310Y-123290055D02*
X120757122Y-123424742D01*
X120757122Y-123424742D02*
X120837934Y-123505555D01*
X120837934Y-123505555D02*
X120972621Y-123586367D01*
X120972621Y-123586367D02*
X121053433Y-123613304D01*
X121053433Y-123613304D02*
X121161183Y-123613304D01*
X121161183Y-123613304D02*
X121268932Y-123559429D01*
X121268932Y-123559429D02*
X121322807Y-123505555D01*
X121322807Y-123505555D02*
X121376682Y-123397805D01*
X121376682Y-123397805D02*
X121376682Y-123343930D01*
X121376682Y-123343930D02*
X121188120Y-123155368D01*
X121188120Y-123155368D02*
X121080371Y-123263118D01*
X121672993Y-123155368D02*
X121107308Y-122589683D01*
X121107308Y-122589683D02*
X121996242Y-122832120D01*
X121996242Y-122832120D02*
X121430557Y-122266434D01*
X122265616Y-122562746D02*
X121699931Y-121997060D01*
X121699931Y-121997060D02*
X121834618Y-121862373D01*
X121834618Y-121862373D02*
X121942367Y-121808498D01*
X121942367Y-121808498D02*
X122050117Y-121808498D01*
X122050117Y-121808498D02*
X122130929Y-121835436D01*
X122130929Y-121835436D02*
X122265616Y-121916248D01*
X122265616Y-121916248D02*
X122346428Y-121997060D01*
X122346428Y-121997060D02*
X122427241Y-122131747D01*
X122427241Y-122131747D02*
X122454178Y-122212560D01*
X122454178Y-122212560D02*
X122454178Y-122320309D01*
X122454178Y-122320309D02*
X122400303Y-122428059D01*
X122400303Y-122428059D02*
X122265616Y-122562746D01*
X119910749Y-138880242D02*
X120664996Y-139257366D01*
X120664996Y-139257366D02*
X120287873Y-138503118D01*
X120988245Y-138880242D02*
X121095995Y-138826367D01*
X121095995Y-138826367D02*
X121230682Y-138691680D01*
X121230682Y-138691680D02*
X121257619Y-138610868D01*
X121257619Y-138610868D02*
X121257619Y-138556993D01*
X121257619Y-138556993D02*
X121230682Y-138476181D01*
X121230682Y-138476181D02*
X121176807Y-138422306D01*
X121176807Y-138422306D02*
X121095995Y-138395369D01*
X121095995Y-138395369D02*
X121042120Y-138395369D01*
X121042120Y-138395369D02*
X120961308Y-138422306D01*
X120961308Y-138422306D02*
X120826621Y-138503118D01*
X120826621Y-138503118D02*
X120745808Y-138530056D01*
X120745808Y-138530056D02*
X120691934Y-138530056D01*
X120691934Y-138530056D02*
X120611121Y-138503118D01*
X120611121Y-138503118D02*
X120557247Y-138449244D01*
X120557247Y-138449244D02*
X120530309Y-138368431D01*
X120530309Y-138368431D02*
X120530309Y-138314557D01*
X120530309Y-138314557D02*
X120557247Y-138233744D01*
X120557247Y-138233744D02*
X120691934Y-138099057D01*
X120691934Y-138099057D02*
X120799683Y-138045183D01*
X121419244Y-137964370D02*
X121688618Y-138233744D01*
X120934370Y-137856621D02*
X121419244Y-137964370D01*
X121419244Y-137964370D02*
X121311494Y-137479497D01*
X122011866Y-137856621D02*
X122119616Y-137802746D01*
X122119616Y-137802746D02*
X122254303Y-137668059D01*
X122254303Y-137668059D02*
X122281240Y-137587247D01*
X122281240Y-137587247D02*
X122281240Y-137533372D01*
X122281240Y-137533372D02*
X122254303Y-137452560D01*
X122254303Y-137452560D02*
X122200428Y-137398685D01*
X122200428Y-137398685D02*
X122119616Y-137371748D01*
X122119616Y-137371748D02*
X122065741Y-137371748D01*
X122065741Y-137371748D02*
X121984929Y-137398685D01*
X121984929Y-137398685D02*
X121850242Y-137479497D01*
X121850242Y-137479497D02*
X121769430Y-137506435D01*
X121769430Y-137506435D02*
X121715555Y-137506435D01*
X121715555Y-137506435D02*
X121634743Y-137479497D01*
X121634743Y-137479497D02*
X121580868Y-137425622D01*
X121580868Y-137425622D02*
X121553930Y-137344810D01*
X121553930Y-137344810D02*
X121553930Y-137290935D01*
X121553930Y-137290935D02*
X121580868Y-137210123D01*
X121580868Y-137210123D02*
X121715555Y-137075436D01*
X121715555Y-137075436D02*
X121823304Y-137021561D01*
X146503372Y-112941494D02*
X146422560Y-112968431D01*
X146422560Y-112968431D02*
X146341748Y-113049243D01*
X146341748Y-113049243D02*
X146287873Y-113156993D01*
X146287873Y-113156993D02*
X146287873Y-113264742D01*
X146287873Y-113264742D02*
X146314810Y-113345555D01*
X146314810Y-113345555D02*
X146395623Y-113480242D01*
X146395623Y-113480242D02*
X146476435Y-113561054D01*
X146476435Y-113561054D02*
X146611122Y-113641866D01*
X146611122Y-113641866D02*
X146691934Y-113668803D01*
X146691934Y-113668803D02*
X146799684Y-113668803D01*
X146799684Y-113668803D02*
X146907433Y-113614929D01*
X146907433Y-113614929D02*
X146961308Y-113561054D01*
X146961308Y-113561054D02*
X147015183Y-113453304D01*
X147015183Y-113453304D02*
X147015183Y-113399429D01*
X147015183Y-113399429D02*
X146826621Y-113210868D01*
X146826621Y-113210868D02*
X146718871Y-113318617D01*
X147311494Y-113210868D02*
X146745809Y-112645182D01*
X146745809Y-112645182D02*
X146961308Y-112429683D01*
X146961308Y-112429683D02*
X147042120Y-112402746D01*
X147042120Y-112402746D02*
X147095995Y-112402746D01*
X147095995Y-112402746D02*
X147176807Y-112429683D01*
X147176807Y-112429683D02*
X147257619Y-112510495D01*
X147257619Y-112510495D02*
X147284557Y-112591307D01*
X147284557Y-112591307D02*
X147284557Y-112645182D01*
X147284557Y-112645182D02*
X147257619Y-112725994D01*
X147257619Y-112725994D02*
X147042120Y-112941494D01*
X147904117Y-112618245D02*
X148011867Y-112510495D01*
X148011867Y-112510495D02*
X148038804Y-112429683D01*
X148038804Y-112429683D02*
X148038804Y-112375808D01*
X148038804Y-112375808D02*
X148011867Y-112241121D01*
X148011867Y-112241121D02*
X147931054Y-112106434D01*
X147931054Y-112106434D02*
X147715555Y-111890935D01*
X147715555Y-111890935D02*
X147634743Y-111863998D01*
X147634743Y-111863998D02*
X147580868Y-111863998D01*
X147580868Y-111863998D02*
X147500056Y-111890935D01*
X147500056Y-111890935D02*
X147392306Y-111998685D01*
X147392306Y-111998685D02*
X147365369Y-112079497D01*
X147365369Y-112079497D02*
X147365369Y-112133372D01*
X147365369Y-112133372D02*
X147392306Y-112214184D01*
X147392306Y-112214184D02*
X147526993Y-112348871D01*
X147526993Y-112348871D02*
X147607806Y-112375808D01*
X147607806Y-112375808D02*
X147661680Y-112375808D01*
X147661680Y-112375808D02*
X147742493Y-112348871D01*
X147742493Y-112348871D02*
X147850242Y-112241121D01*
X147850242Y-112241121D02*
X147877180Y-112160309D01*
X147877180Y-112160309D02*
X147877180Y-112106434D01*
X147877180Y-112106434D02*
X147850242Y-112025622D01*
X146487998Y-92890868D02*
X146407185Y-92917805D01*
X146407185Y-92917805D02*
X146326373Y-92998618D01*
X146326373Y-92998618D02*
X146272498Y-93106367D01*
X146272498Y-93106367D02*
X146272498Y-93214117D01*
X146272498Y-93214117D02*
X146299436Y-93294929D01*
X146299436Y-93294929D02*
X146380248Y-93429616D01*
X146380248Y-93429616D02*
X146461060Y-93510428D01*
X146461060Y-93510428D02*
X146595747Y-93591241D01*
X146595747Y-93591241D02*
X146676560Y-93618178D01*
X146676560Y-93618178D02*
X146784309Y-93618178D01*
X146784309Y-93618178D02*
X146892059Y-93564303D01*
X146892059Y-93564303D02*
X146945934Y-93510428D01*
X146945934Y-93510428D02*
X146999808Y-93402679D01*
X146999808Y-93402679D02*
X146999808Y-93348804D01*
X146999808Y-93348804D02*
X146811247Y-93160242D01*
X146811247Y-93160242D02*
X146703497Y-93267992D01*
X147296120Y-93160242D02*
X146730434Y-92594557D01*
X146730434Y-92594557D02*
X146945934Y-92379057D01*
X146945934Y-92379057D02*
X147026746Y-92352120D01*
X147026746Y-92352120D02*
X147080621Y-92352120D01*
X147080621Y-92352120D02*
X147161433Y-92379057D01*
X147161433Y-92379057D02*
X147242245Y-92459870D01*
X147242245Y-92459870D02*
X147269182Y-92540682D01*
X147269182Y-92540682D02*
X147269182Y-92594557D01*
X147269182Y-92594557D02*
X147242245Y-92675369D01*
X147242245Y-92675369D02*
X147026746Y-92890868D01*
X148158117Y-92298245D02*
X147834868Y-92621494D01*
X147996492Y-92459870D02*
X147430807Y-91894184D01*
X147430807Y-91894184D02*
X147457744Y-92028871D01*
X147457744Y-92028871D02*
X147457744Y-92136621D01*
X147457744Y-92136621D02*
X147430807Y-92217433D01*
X148104242Y-91220749D02*
X147834868Y-91490123D01*
X147834868Y-91490123D02*
X148077305Y-91786434D01*
X148077305Y-91786434D02*
X148077305Y-91732560D01*
X148077305Y-91732560D02*
X148104242Y-91651747D01*
X148104242Y-91651747D02*
X148238929Y-91517060D01*
X148238929Y-91517060D02*
X148319741Y-91490123D01*
X148319741Y-91490123D02*
X148373616Y-91490123D01*
X148373616Y-91490123D02*
X148454428Y-91517060D01*
X148454428Y-91517060D02*
X148589115Y-91651747D01*
X148589115Y-91651747D02*
X148616053Y-91732560D01*
X148616053Y-91732560D02*
X148616053Y-91786434D01*
X148616053Y-91786434D02*
X148589115Y-91867247D01*
X148589115Y-91867247D02*
X148454428Y-92001934D01*
X148454428Y-92001934D02*
X148373616Y-92028871D01*
X148373616Y-92028871D02*
X148319741Y-92028871D01*
X120480123Y-130920868D02*
X120830309Y-130570682D01*
X120830309Y-130570682D02*
X120857247Y-130974743D01*
X120857247Y-130974743D02*
X120938059Y-130893931D01*
X120938059Y-130893931D02*
X121018871Y-130866993D01*
X121018871Y-130866993D02*
X121072746Y-130866993D01*
X121072746Y-130866993D02*
X121153558Y-130893931D01*
X121153558Y-130893931D02*
X121288245Y-131028618D01*
X121288245Y-131028618D02*
X121315182Y-131109430D01*
X121315182Y-131109430D02*
X121315182Y-131163305D01*
X121315182Y-131163305D02*
X121288245Y-131244117D01*
X121288245Y-131244117D02*
X121126621Y-131405741D01*
X121126621Y-131405741D02*
X121045808Y-131432679D01*
X121045808Y-131432679D02*
X120991934Y-131432679D01*
X120991934Y-130409057D02*
X121746181Y-130786181D01*
X121746181Y-130786181D02*
X121369057Y-130031934D01*
X121503744Y-129897247D02*
X121853930Y-129547061D01*
X121853930Y-129547061D02*
X121880868Y-129951122D01*
X121880868Y-129951122D02*
X121961680Y-129870309D01*
X121961680Y-129870309D02*
X122042492Y-129843372D01*
X122042492Y-129843372D02*
X122096367Y-129843372D01*
X122096367Y-129843372D02*
X122177179Y-129870309D01*
X122177179Y-129870309D02*
X122311866Y-130004996D01*
X122311866Y-130004996D02*
X122338804Y-130085809D01*
X122338804Y-130085809D02*
X122338804Y-130139683D01*
X122338804Y-130139683D02*
X122311866Y-130220496D01*
X122311866Y-130220496D02*
X122150242Y-130382120D01*
X122150242Y-130382120D02*
X122069430Y-130409057D01*
X122069430Y-130409057D02*
X122015555Y-130409057D01*
X146533998Y-95430868D02*
X146453185Y-95457805D01*
X146453185Y-95457805D02*
X146372373Y-95538618D01*
X146372373Y-95538618D02*
X146318498Y-95646367D01*
X146318498Y-95646367D02*
X146318498Y-95754117D01*
X146318498Y-95754117D02*
X146345436Y-95834929D01*
X146345436Y-95834929D02*
X146426248Y-95969616D01*
X146426248Y-95969616D02*
X146507060Y-96050428D01*
X146507060Y-96050428D02*
X146641747Y-96131241D01*
X146641747Y-96131241D02*
X146722560Y-96158178D01*
X146722560Y-96158178D02*
X146830309Y-96158178D01*
X146830309Y-96158178D02*
X146938059Y-96104303D01*
X146938059Y-96104303D02*
X146991934Y-96050428D01*
X146991934Y-96050428D02*
X147045808Y-95942679D01*
X147045808Y-95942679D02*
X147045808Y-95888804D01*
X147045808Y-95888804D02*
X146857247Y-95700242D01*
X146857247Y-95700242D02*
X146749497Y-95807992D01*
X147342120Y-95700242D02*
X146776434Y-95134557D01*
X146776434Y-95134557D02*
X146991934Y-94919057D01*
X146991934Y-94919057D02*
X147072746Y-94892120D01*
X147072746Y-94892120D02*
X147126621Y-94892120D01*
X147126621Y-94892120D02*
X147207433Y-94919057D01*
X147207433Y-94919057D02*
X147288245Y-94999870D01*
X147288245Y-94999870D02*
X147315182Y-95080682D01*
X147315182Y-95080682D02*
X147315182Y-95134557D01*
X147315182Y-95134557D02*
X147288245Y-95215369D01*
X147288245Y-95215369D02*
X147072746Y-95430868D01*
X148204117Y-94838245D02*
X147880868Y-95161494D01*
X148042492Y-94999870D02*
X147476807Y-94434184D01*
X147476807Y-94434184D02*
X147503744Y-94568871D01*
X147503744Y-94568871D02*
X147503744Y-94676621D01*
X147503744Y-94676621D02*
X147476807Y-94757433D01*
X148311866Y-93976248D02*
X148688990Y-94353372D01*
X147961680Y-93895436D02*
X148231054Y-94434184D01*
X148231054Y-94434184D02*
X148581240Y-94083998D01*
X146476435Y-123128431D02*
X146395623Y-123155368D01*
X146395623Y-123155368D02*
X146314811Y-123236180D01*
X146314811Y-123236180D02*
X146260936Y-123343930D01*
X146260936Y-123343930D02*
X146260936Y-123451680D01*
X146260936Y-123451680D02*
X146287873Y-123532492D01*
X146287873Y-123532492D02*
X146368685Y-123667179D01*
X146368685Y-123667179D02*
X146449498Y-123747991D01*
X146449498Y-123747991D02*
X146584185Y-123828803D01*
X146584185Y-123828803D02*
X146664997Y-123855741D01*
X146664997Y-123855741D02*
X146772746Y-123855741D01*
X146772746Y-123855741D02*
X146880496Y-123801866D01*
X146880496Y-123801866D02*
X146934371Y-123747991D01*
X146934371Y-123747991D02*
X146988246Y-123640241D01*
X146988246Y-123640241D02*
X146988246Y-123586367D01*
X146988246Y-123586367D02*
X146799684Y-123397805D01*
X146799684Y-123397805D02*
X146691934Y-123505554D01*
X147284557Y-123397805D02*
X146718872Y-122832119D01*
X146718872Y-122832119D02*
X147607806Y-123074556D01*
X147607806Y-123074556D02*
X147042120Y-122508871D01*
X147877180Y-122805182D02*
X147311494Y-122239497D01*
X147311494Y-122239497D02*
X147446181Y-122104810D01*
X147446181Y-122104810D02*
X147553931Y-122050935D01*
X147553931Y-122050935D02*
X147661680Y-122050935D01*
X147661680Y-122050935D02*
X147742493Y-122077872D01*
X147742493Y-122077872D02*
X147877180Y-122158685D01*
X147877180Y-122158685D02*
X147957992Y-122239497D01*
X147957992Y-122239497D02*
X148038804Y-122374184D01*
X148038804Y-122374184D02*
X148065741Y-122454996D01*
X148065741Y-122454996D02*
X148065741Y-122562746D01*
X148065741Y-122562746D02*
X148011867Y-122670495D01*
X148011867Y-122670495D02*
X147877180Y-122805182D01*
X146503372Y-120561494D02*
X146422560Y-120588431D01*
X146422560Y-120588431D02*
X146341748Y-120669243D01*
X146341748Y-120669243D02*
X146287873Y-120776993D01*
X146287873Y-120776993D02*
X146287873Y-120884742D01*
X146287873Y-120884742D02*
X146314810Y-120965555D01*
X146314810Y-120965555D02*
X146395623Y-121100242D01*
X146395623Y-121100242D02*
X146476435Y-121181054D01*
X146476435Y-121181054D02*
X146611122Y-121261866D01*
X146611122Y-121261866D02*
X146691934Y-121288803D01*
X146691934Y-121288803D02*
X146799684Y-121288803D01*
X146799684Y-121288803D02*
X146907433Y-121234929D01*
X146907433Y-121234929D02*
X146961308Y-121181054D01*
X146961308Y-121181054D02*
X147015183Y-121073304D01*
X147015183Y-121073304D02*
X147015183Y-121019429D01*
X147015183Y-121019429D02*
X146826621Y-120830868D01*
X146826621Y-120830868D02*
X146718871Y-120938617D01*
X147311494Y-120830868D02*
X146745809Y-120265182D01*
X146745809Y-120265182D02*
X146961308Y-120049683D01*
X146961308Y-120049683D02*
X147042120Y-120022746D01*
X147042120Y-120022746D02*
X147095995Y-120022746D01*
X147095995Y-120022746D02*
X147176807Y-120049683D01*
X147176807Y-120049683D02*
X147257619Y-120130495D01*
X147257619Y-120130495D02*
X147284557Y-120211307D01*
X147284557Y-120211307D02*
X147284557Y-120265182D01*
X147284557Y-120265182D02*
X147257619Y-120345994D01*
X147257619Y-120345994D02*
X147042120Y-120561494D01*
X147553931Y-119457060D02*
X147446181Y-119564810D01*
X147446181Y-119564810D02*
X147419244Y-119645622D01*
X147419244Y-119645622D02*
X147419244Y-119699497D01*
X147419244Y-119699497D02*
X147446181Y-119834184D01*
X147446181Y-119834184D02*
X147526993Y-119968871D01*
X147526993Y-119968871D02*
X147742493Y-120184370D01*
X147742493Y-120184370D02*
X147823305Y-120211307D01*
X147823305Y-120211307D02*
X147877180Y-120211307D01*
X147877180Y-120211307D02*
X147957992Y-120184370D01*
X147957992Y-120184370D02*
X148065741Y-120076620D01*
X148065741Y-120076620D02*
X148092679Y-119995808D01*
X148092679Y-119995808D02*
X148092679Y-119941933D01*
X148092679Y-119941933D02*
X148065741Y-119861121D01*
X148065741Y-119861121D02*
X147931054Y-119726434D01*
X147931054Y-119726434D02*
X147850242Y-119699497D01*
X147850242Y-119699497D02*
X147796367Y-119699497D01*
X147796367Y-119699497D02*
X147715555Y-119726434D01*
X147715555Y-119726434D02*
X147607806Y-119834184D01*
X147607806Y-119834184D02*
X147580868Y-119914996D01*
X147580868Y-119914996D02*
X147580868Y-119968871D01*
X147580868Y-119968871D02*
X147607806Y-120049683D01*
X146503372Y-128181494D02*
X146422560Y-128208431D01*
X146422560Y-128208431D02*
X146341748Y-128289243D01*
X146341748Y-128289243D02*
X146287873Y-128396993D01*
X146287873Y-128396993D02*
X146287873Y-128504742D01*
X146287873Y-128504742D02*
X146314810Y-128585555D01*
X146314810Y-128585555D02*
X146395623Y-128720242D01*
X146395623Y-128720242D02*
X146476435Y-128801054D01*
X146476435Y-128801054D02*
X146611122Y-128881866D01*
X146611122Y-128881866D02*
X146691934Y-128908803D01*
X146691934Y-128908803D02*
X146799684Y-128908803D01*
X146799684Y-128908803D02*
X146907433Y-128854929D01*
X146907433Y-128854929D02*
X146961308Y-128801054D01*
X146961308Y-128801054D02*
X147015183Y-128693304D01*
X147015183Y-128693304D02*
X147015183Y-128639429D01*
X147015183Y-128639429D02*
X146826621Y-128450868D01*
X146826621Y-128450868D02*
X146718871Y-128558617D01*
X147311494Y-128450868D02*
X146745809Y-127885182D01*
X146745809Y-127885182D02*
X146961308Y-127669683D01*
X146961308Y-127669683D02*
X147042120Y-127642746D01*
X147042120Y-127642746D02*
X147095995Y-127642746D01*
X147095995Y-127642746D02*
X147176807Y-127669683D01*
X147176807Y-127669683D02*
X147257619Y-127750495D01*
X147257619Y-127750495D02*
X147284557Y-127831307D01*
X147284557Y-127831307D02*
X147284557Y-127885182D01*
X147284557Y-127885182D02*
X147257619Y-127965994D01*
X147257619Y-127965994D02*
X147042120Y-128181494D01*
X147742493Y-127265622D02*
X148119616Y-127642746D01*
X147392306Y-127184810D02*
X147661680Y-127723558D01*
X147661680Y-127723558D02*
X148011867Y-127373372D01*
X127194761Y-108954200D02*
X127309047Y-108992295D01*
X127309047Y-108992295D02*
X127499523Y-108992295D01*
X127499523Y-108992295D02*
X127575714Y-108954200D01*
X127575714Y-108954200D02*
X127613809Y-108916104D01*
X127613809Y-108916104D02*
X127651904Y-108839914D01*
X127651904Y-108839914D02*
X127651904Y-108763723D01*
X127651904Y-108763723D02*
X127613809Y-108687533D01*
X127613809Y-108687533D02*
X127575714Y-108649438D01*
X127575714Y-108649438D02*
X127499523Y-108611342D01*
X127499523Y-108611342D02*
X127347142Y-108573247D01*
X127347142Y-108573247D02*
X127270952Y-108535152D01*
X127270952Y-108535152D02*
X127232857Y-108497057D01*
X127232857Y-108497057D02*
X127194761Y-108420866D01*
X127194761Y-108420866D02*
X127194761Y-108344676D01*
X127194761Y-108344676D02*
X127232857Y-108268485D01*
X127232857Y-108268485D02*
X127270952Y-108230390D01*
X127270952Y-108230390D02*
X127347142Y-108192295D01*
X127347142Y-108192295D02*
X127537619Y-108192295D01*
X127537619Y-108192295D02*
X127651904Y-108230390D01*
X127918571Y-108192295D02*
X128109047Y-108992295D01*
X128109047Y-108992295D02*
X128261428Y-108420866D01*
X128261428Y-108420866D02*
X128413809Y-108992295D01*
X128413809Y-108992295D02*
X128604286Y-108192295D01*
X128909048Y-108992295D02*
X128909048Y-108192295D01*
X128909048Y-108192295D02*
X129099524Y-108192295D01*
X129099524Y-108192295D02*
X129213810Y-108230390D01*
X129213810Y-108230390D02*
X129290000Y-108306580D01*
X129290000Y-108306580D02*
X129328095Y-108382771D01*
X129328095Y-108382771D02*
X129366191Y-108535152D01*
X129366191Y-108535152D02*
X129366191Y-108649438D01*
X129366191Y-108649438D02*
X129328095Y-108801819D01*
X129328095Y-108801819D02*
X129290000Y-108878009D01*
X129290000Y-108878009D02*
X129213810Y-108954200D01*
X129213810Y-108954200D02*
X129099524Y-108992295D01*
X129099524Y-108992295D02*
X128909048Y-108992295D01*
X129709048Y-108992295D02*
X129709048Y-108192295D01*
X130242381Y-108192295D02*
X130394762Y-108192295D01*
X130394762Y-108192295D02*
X130470952Y-108230390D01*
X130470952Y-108230390D02*
X130547143Y-108306580D01*
X130547143Y-108306580D02*
X130585238Y-108458961D01*
X130585238Y-108458961D02*
X130585238Y-108725628D01*
X130585238Y-108725628D02*
X130547143Y-108878009D01*
X130547143Y-108878009D02*
X130470952Y-108954200D01*
X130470952Y-108954200D02*
X130394762Y-108992295D01*
X130394762Y-108992295D02*
X130242381Y-108992295D01*
X130242381Y-108992295D02*
X130166190Y-108954200D01*
X130166190Y-108954200D02*
X130090000Y-108878009D01*
X130090000Y-108878009D02*
X130051904Y-108725628D01*
X130051904Y-108725628D02*
X130051904Y-108458961D01*
X130051904Y-108458961D02*
X130090000Y-108306580D01*
X130090000Y-108306580D02*
X130166190Y-108230390D01*
X130166190Y-108230390D02*
X130242381Y-108192295D01*
X120379998Y-92890868D02*
X120299185Y-92917805D01*
X120299185Y-92917805D02*
X120218373Y-92998618D01*
X120218373Y-92998618D02*
X120164498Y-93106367D01*
X120164498Y-93106367D02*
X120164498Y-93214117D01*
X120164498Y-93214117D02*
X120191436Y-93294929D01*
X120191436Y-93294929D02*
X120272248Y-93429616D01*
X120272248Y-93429616D02*
X120353060Y-93510428D01*
X120353060Y-93510428D02*
X120487747Y-93591241D01*
X120487747Y-93591241D02*
X120568560Y-93618178D01*
X120568560Y-93618178D02*
X120676309Y-93618178D01*
X120676309Y-93618178D02*
X120784059Y-93564303D01*
X120784059Y-93564303D02*
X120837934Y-93510428D01*
X120837934Y-93510428D02*
X120891808Y-93402679D01*
X120891808Y-93402679D02*
X120891808Y-93348804D01*
X120891808Y-93348804D02*
X120703247Y-93160242D01*
X120703247Y-93160242D02*
X120595497Y-93267992D01*
X121188120Y-93160242D02*
X120622434Y-92594557D01*
X120622434Y-92594557D02*
X120837934Y-92379057D01*
X120837934Y-92379057D02*
X120918746Y-92352120D01*
X120918746Y-92352120D02*
X120972621Y-92352120D01*
X120972621Y-92352120D02*
X121053433Y-92379057D01*
X121053433Y-92379057D02*
X121134245Y-92459870D01*
X121134245Y-92459870D02*
X121161182Y-92540682D01*
X121161182Y-92540682D02*
X121161182Y-92594557D01*
X121161182Y-92594557D02*
X121134245Y-92675369D01*
X121134245Y-92675369D02*
X120918746Y-92890868D01*
X122050117Y-92298245D02*
X121726868Y-92621494D01*
X121888492Y-92459870D02*
X121322807Y-91894184D01*
X121322807Y-91894184D02*
X121349744Y-92028871D01*
X121349744Y-92028871D02*
X121349744Y-92136621D01*
X121349744Y-92136621D02*
X121322807Y-92217433D01*
X121969305Y-91247686D02*
X121861555Y-91355436D01*
X121861555Y-91355436D02*
X121834618Y-91436248D01*
X121834618Y-91436248D02*
X121834618Y-91490123D01*
X121834618Y-91490123D02*
X121861555Y-91624810D01*
X121861555Y-91624810D02*
X121942367Y-91759497D01*
X121942367Y-91759497D02*
X122157866Y-91974996D01*
X122157866Y-91974996D02*
X122238679Y-92001934D01*
X122238679Y-92001934D02*
X122292553Y-92001934D01*
X122292553Y-92001934D02*
X122373366Y-91974996D01*
X122373366Y-91974996D02*
X122481115Y-91867247D01*
X122481115Y-91867247D02*
X122508053Y-91786434D01*
X122508053Y-91786434D02*
X122508053Y-91732560D01*
X122508053Y-91732560D02*
X122481115Y-91651747D01*
X122481115Y-91651747D02*
X122346428Y-91517060D01*
X122346428Y-91517060D02*
X122265616Y-91490123D01*
X122265616Y-91490123D02*
X122211741Y-91490123D01*
X122211741Y-91490123D02*
X122130929Y-91517060D01*
X122130929Y-91517060D02*
X122023179Y-91624810D01*
X122023179Y-91624810D02*
X121996242Y-91705622D01*
X121996242Y-91705622D02*
X121996242Y-91759497D01*
X121996242Y-91759497D02*
X122023179Y-91840309D01*
X146476435Y-135828431D02*
X146395623Y-135855368D01*
X146395623Y-135855368D02*
X146314811Y-135936180D01*
X146314811Y-135936180D02*
X146260936Y-136043930D01*
X146260936Y-136043930D02*
X146260936Y-136151680D01*
X146260936Y-136151680D02*
X146287873Y-136232492D01*
X146287873Y-136232492D02*
X146368685Y-136367179D01*
X146368685Y-136367179D02*
X146449498Y-136447991D01*
X146449498Y-136447991D02*
X146584185Y-136528803D01*
X146584185Y-136528803D02*
X146664997Y-136555741D01*
X146664997Y-136555741D02*
X146772746Y-136555741D01*
X146772746Y-136555741D02*
X146880496Y-136501866D01*
X146880496Y-136501866D02*
X146934371Y-136447991D01*
X146934371Y-136447991D02*
X146988246Y-136340241D01*
X146988246Y-136340241D02*
X146988246Y-136286367D01*
X146988246Y-136286367D02*
X146799684Y-136097805D01*
X146799684Y-136097805D02*
X146691934Y-136205554D01*
X147284557Y-136097805D02*
X146718872Y-135532119D01*
X146718872Y-135532119D02*
X147607806Y-135774556D01*
X147607806Y-135774556D02*
X147042120Y-135208871D01*
X147877180Y-135505182D02*
X147311494Y-134939497D01*
X147311494Y-134939497D02*
X147446181Y-134804810D01*
X147446181Y-134804810D02*
X147553931Y-134750935D01*
X147553931Y-134750935D02*
X147661680Y-134750935D01*
X147661680Y-134750935D02*
X147742493Y-134777872D01*
X147742493Y-134777872D02*
X147877180Y-134858685D01*
X147877180Y-134858685D02*
X147957992Y-134939497D01*
X147957992Y-134939497D02*
X148038804Y-135074184D01*
X148038804Y-135074184D02*
X148065741Y-135154996D01*
X148065741Y-135154996D02*
X148065741Y-135262746D01*
X148065741Y-135262746D02*
X148011867Y-135370495D01*
X148011867Y-135370495D02*
X147877180Y-135505182D01*
X120043249Y-129032742D02*
X120797496Y-129409866D01*
X120797496Y-129409866D02*
X120420373Y-128655618D01*
X121497869Y-128709493D02*
X121039933Y-128628681D01*
X121174620Y-129032742D02*
X120608934Y-128467057D01*
X120608934Y-128467057D02*
X120824434Y-128251557D01*
X120824434Y-128251557D02*
X120905246Y-128224620D01*
X120905246Y-128224620D02*
X120959121Y-128224620D01*
X120959121Y-128224620D02*
X121039933Y-128251557D01*
X121039933Y-128251557D02*
X121120745Y-128332370D01*
X121120745Y-128332370D02*
X121147682Y-128413182D01*
X121147682Y-128413182D02*
X121147682Y-128467057D01*
X121147682Y-128467057D02*
X121120745Y-128547869D01*
X121120745Y-128547869D02*
X120905246Y-128763368D01*
X121443994Y-128170745D02*
X121632556Y-127982183D01*
X122009679Y-128197683D02*
X121740305Y-128467057D01*
X121740305Y-128467057D02*
X121174620Y-127901371D01*
X121174620Y-127901371D02*
X121443994Y-127631997D01*
X122144367Y-127470373D02*
X121955805Y-127658934D01*
X122252116Y-127955246D02*
X121686431Y-127389560D01*
X121686431Y-127389560D02*
X121955805Y-127120186D01*
X119743406Y-141557585D02*
X120497653Y-141934709D01*
X120497653Y-141934709D02*
X120120529Y-141180462D01*
X120767027Y-141072712D02*
X120874776Y-141018838D01*
X120874776Y-141018838D02*
X120928651Y-141018838D01*
X120928651Y-141018838D02*
X121009463Y-141045775D01*
X121009463Y-141045775D02*
X121090276Y-141126587D01*
X121090276Y-141126587D02*
X121117213Y-141207399D01*
X121117213Y-141207399D02*
X121117213Y-141261274D01*
X121117213Y-141261274D02*
X121090276Y-141342086D01*
X121090276Y-141342086D02*
X120874776Y-141557586D01*
X120874776Y-141557586D02*
X120309091Y-140991900D01*
X120309091Y-140991900D02*
X120497653Y-140803338D01*
X120497653Y-140803338D02*
X120578465Y-140776401D01*
X120578465Y-140776401D02*
X120632340Y-140776401D01*
X120632340Y-140776401D02*
X120713152Y-140803338D01*
X120713152Y-140803338D02*
X120767027Y-140857213D01*
X120767027Y-140857213D02*
X120793964Y-140938025D01*
X120793964Y-140938025D02*
X120793964Y-140991900D01*
X120793964Y-140991900D02*
X120767027Y-141072712D01*
X120767027Y-141072712D02*
X120578465Y-141261274D01*
X120874776Y-140426215D02*
X121332712Y-140884151D01*
X121332712Y-140884151D02*
X121413524Y-140911088D01*
X121413524Y-140911088D02*
X121467399Y-140911088D01*
X121467399Y-140911088D02*
X121548211Y-140884151D01*
X121548211Y-140884151D02*
X121655961Y-140776401D01*
X121655961Y-140776401D02*
X121682898Y-140695589D01*
X121682898Y-140695589D02*
X121682898Y-140641714D01*
X121682898Y-140641714D02*
X121655961Y-140560902D01*
X121655961Y-140560902D02*
X121198025Y-140102966D01*
X121979210Y-140399277D02*
X122086959Y-140345403D01*
X122086959Y-140345403D02*
X122221646Y-140210716D01*
X122221646Y-140210716D02*
X122248584Y-140129903D01*
X122248584Y-140129903D02*
X122248584Y-140076029D01*
X122248584Y-140076029D02*
X122221646Y-139995216D01*
X122221646Y-139995216D02*
X122167771Y-139941342D01*
X122167771Y-139941342D02*
X122086959Y-139914404D01*
X122086959Y-139914404D02*
X122033084Y-139914404D01*
X122033084Y-139914404D02*
X121952272Y-139941342D01*
X121952272Y-139941342D02*
X121817585Y-140022154D01*
X121817585Y-140022154D02*
X121736773Y-140049091D01*
X121736773Y-140049091D02*
X121682898Y-140049091D01*
X121682898Y-140049091D02*
X121602086Y-140022154D01*
X121602086Y-140022154D02*
X121548211Y-139968279D01*
X121548211Y-139968279D02*
X121521274Y-139887467D01*
X121521274Y-139887467D02*
X121521274Y-139833592D01*
X121521274Y-139833592D02*
X121548211Y-139752780D01*
X121548211Y-139752780D02*
X121682898Y-139618093D01*
X121682898Y-139618093D02*
X121790648Y-139564218D01*
X118912407Y-134988584D02*
X119262593Y-134638398D01*
X119262593Y-134638398D02*
X119289531Y-135042459D01*
X119289531Y-135042459D02*
X119370343Y-134961646D01*
X119370343Y-134961646D02*
X119451155Y-134934709D01*
X119451155Y-134934709D02*
X119505030Y-134934709D01*
X119505030Y-134934709D02*
X119585842Y-134961646D01*
X119585842Y-134961646D02*
X119720529Y-135096333D01*
X119720529Y-135096333D02*
X119747467Y-135177146D01*
X119747467Y-135177146D02*
X119747467Y-135231020D01*
X119747467Y-135231020D02*
X119720529Y-135311833D01*
X119720529Y-135311833D02*
X119558905Y-135473457D01*
X119558905Y-135473457D02*
X119478093Y-135500394D01*
X119478093Y-135500394D02*
X119424218Y-135500394D01*
X119424218Y-134476773D02*
X120178465Y-134853897D01*
X120178465Y-134853897D02*
X119801342Y-134099649D01*
X119936028Y-133964963D02*
X120286215Y-133614776D01*
X120286215Y-133614776D02*
X120313152Y-134018837D01*
X120313152Y-134018837D02*
X120393964Y-133938025D01*
X120393964Y-133938025D02*
X120474776Y-133911088D01*
X120474776Y-133911088D02*
X120528651Y-133911088D01*
X120528651Y-133911088D02*
X120609464Y-133938025D01*
X120609464Y-133938025D02*
X120744151Y-134072712D01*
X120744151Y-134072712D02*
X120771088Y-134153524D01*
X120771088Y-134153524D02*
X120771088Y-134207399D01*
X120771088Y-134207399D02*
X120744151Y-134288211D01*
X120744151Y-134288211D02*
X120582526Y-134449836D01*
X120582526Y-134449836D02*
X120501714Y-134476773D01*
X120501714Y-134476773D02*
X120447839Y-134476773D01*
X121013525Y-134126587D02*
X121444523Y-133695588D01*
X121229024Y-133210715D02*
X121417586Y-133022153D01*
X121794709Y-133237652D02*
X121525335Y-133507026D01*
X121525335Y-133507026D02*
X120959650Y-132941341D01*
X120959650Y-132941341D02*
X121229024Y-132671967D01*
X122037146Y-132995215D02*
X121471461Y-132429530D01*
X121471461Y-132429530D02*
X122360395Y-132671967D01*
X122360395Y-132671967D02*
X121794710Y-132106281D01*
X146633998Y-102728368D02*
X146553185Y-102755305D01*
X146553185Y-102755305D02*
X146472373Y-102836118D01*
X146472373Y-102836118D02*
X146418498Y-102943867D01*
X146418498Y-102943867D02*
X146418498Y-103051617D01*
X146418498Y-103051617D02*
X146445436Y-103132429D01*
X146445436Y-103132429D02*
X146526248Y-103267116D01*
X146526248Y-103267116D02*
X146607060Y-103347928D01*
X146607060Y-103347928D02*
X146741747Y-103428741D01*
X146741747Y-103428741D02*
X146822560Y-103455678D01*
X146822560Y-103455678D02*
X146930309Y-103455678D01*
X146930309Y-103455678D02*
X147038059Y-103401803D01*
X147038059Y-103401803D02*
X147091934Y-103347928D01*
X147091934Y-103347928D02*
X147145808Y-103240179D01*
X147145808Y-103240179D02*
X147145808Y-103186304D01*
X147145808Y-103186304D02*
X146957247Y-102997742D01*
X146957247Y-102997742D02*
X146849497Y-103105492D01*
X147442120Y-102997742D02*
X146876434Y-102432057D01*
X146876434Y-102432057D02*
X147091934Y-102216557D01*
X147091934Y-102216557D02*
X147172746Y-102189620D01*
X147172746Y-102189620D02*
X147226621Y-102189620D01*
X147226621Y-102189620D02*
X147307433Y-102216557D01*
X147307433Y-102216557D02*
X147388245Y-102297370D01*
X147388245Y-102297370D02*
X147415182Y-102378182D01*
X147415182Y-102378182D02*
X147415182Y-102432057D01*
X147415182Y-102432057D02*
X147388245Y-102512869D01*
X147388245Y-102512869D02*
X147172746Y-102728368D01*
X148304117Y-102135745D02*
X147980868Y-102458994D01*
X148142492Y-102297370D02*
X147576807Y-101731684D01*
X147576807Y-101731684D02*
X147603744Y-101866371D01*
X147603744Y-101866371D02*
X147603744Y-101974121D01*
X147603744Y-101974121D02*
X147576807Y-102054933D01*
X148007805Y-101408435D02*
X148007805Y-101354560D01*
X148007805Y-101354560D02*
X148034743Y-101273748D01*
X148034743Y-101273748D02*
X148169430Y-101139061D01*
X148169430Y-101139061D02*
X148250242Y-101112124D01*
X148250242Y-101112124D02*
X148304117Y-101112124D01*
X148304117Y-101112124D02*
X148384929Y-101139061D01*
X148384929Y-101139061D02*
X148438804Y-101192936D01*
X148438804Y-101192936D02*
X148492679Y-101300686D01*
X148492679Y-101300686D02*
X148492679Y-101947183D01*
X148492679Y-101947183D02*
X148842865Y-101596997D01*
X146503372Y-140881494D02*
X146422560Y-140908431D01*
X146422560Y-140908431D02*
X146341748Y-140989243D01*
X146341748Y-140989243D02*
X146287873Y-141096993D01*
X146287873Y-141096993D02*
X146287873Y-141204742D01*
X146287873Y-141204742D02*
X146314810Y-141285555D01*
X146314810Y-141285555D02*
X146395623Y-141420242D01*
X146395623Y-141420242D02*
X146476435Y-141501054D01*
X146476435Y-141501054D02*
X146611122Y-141581866D01*
X146611122Y-141581866D02*
X146691934Y-141608803D01*
X146691934Y-141608803D02*
X146799684Y-141608803D01*
X146799684Y-141608803D02*
X146907433Y-141554929D01*
X146907433Y-141554929D02*
X146961308Y-141501054D01*
X146961308Y-141501054D02*
X147015183Y-141393304D01*
X147015183Y-141393304D02*
X147015183Y-141339429D01*
X147015183Y-141339429D02*
X146826621Y-141150868D01*
X146826621Y-141150868D02*
X146718871Y-141258617D01*
X147311494Y-141150868D02*
X146745809Y-140585182D01*
X146745809Y-140585182D02*
X146961308Y-140369683D01*
X146961308Y-140369683D02*
X147042120Y-140342746D01*
X147042120Y-140342746D02*
X147095995Y-140342746D01*
X147095995Y-140342746D02*
X147176807Y-140369683D01*
X147176807Y-140369683D02*
X147257619Y-140450495D01*
X147257619Y-140450495D02*
X147284557Y-140531307D01*
X147284557Y-140531307D02*
X147284557Y-140585182D01*
X147284557Y-140585182D02*
X147257619Y-140665994D01*
X147257619Y-140665994D02*
X147042120Y-140881494D01*
X147419244Y-139911747D02*
X147473119Y-139857872D01*
X147473119Y-139857872D02*
X147553931Y-139830935D01*
X147553931Y-139830935D02*
X147607806Y-139830935D01*
X147607806Y-139830935D02*
X147688618Y-139857872D01*
X147688618Y-139857872D02*
X147823305Y-139938685D01*
X147823305Y-139938685D02*
X147957992Y-140073372D01*
X147957992Y-140073372D02*
X148038804Y-140208059D01*
X148038804Y-140208059D02*
X148065741Y-140288871D01*
X148065741Y-140288871D02*
X148065741Y-140342746D01*
X148065741Y-140342746D02*
X148038804Y-140423558D01*
X148038804Y-140423558D02*
X147984929Y-140477433D01*
X147984929Y-140477433D02*
X147904117Y-140504370D01*
X147904117Y-140504370D02*
X147850242Y-140504370D01*
X147850242Y-140504370D02*
X147769430Y-140477433D01*
X147769430Y-140477433D02*
X147634743Y-140396620D01*
X147634743Y-140396620D02*
X147500056Y-140261933D01*
X147500056Y-140261933D02*
X147419244Y-140127246D01*
X147419244Y-140127246D02*
X147392306Y-140046434D01*
X147392306Y-140046434D02*
X147392306Y-139992559D01*
X147392306Y-139992559D02*
X147419244Y-139911747D01*
X146633998Y-105268368D02*
X146553185Y-105295305D01*
X146553185Y-105295305D02*
X146472373Y-105376118D01*
X146472373Y-105376118D02*
X146418498Y-105483867D01*
X146418498Y-105483867D02*
X146418498Y-105591617D01*
X146418498Y-105591617D02*
X146445436Y-105672429D01*
X146445436Y-105672429D02*
X146526248Y-105807116D01*
X146526248Y-105807116D02*
X146607060Y-105887928D01*
X146607060Y-105887928D02*
X146741747Y-105968741D01*
X146741747Y-105968741D02*
X146822560Y-105995678D01*
X146822560Y-105995678D02*
X146930309Y-105995678D01*
X146930309Y-105995678D02*
X147038059Y-105941803D01*
X147038059Y-105941803D02*
X147091934Y-105887928D01*
X147091934Y-105887928D02*
X147145808Y-105780179D01*
X147145808Y-105780179D02*
X147145808Y-105726304D01*
X147145808Y-105726304D02*
X146957247Y-105537742D01*
X146957247Y-105537742D02*
X146849497Y-105645492D01*
X147442120Y-105537742D02*
X146876434Y-104972057D01*
X146876434Y-104972057D02*
X147091934Y-104756557D01*
X147091934Y-104756557D02*
X147172746Y-104729620D01*
X147172746Y-104729620D02*
X147226621Y-104729620D01*
X147226621Y-104729620D02*
X147307433Y-104756557D01*
X147307433Y-104756557D02*
X147388245Y-104837370D01*
X147388245Y-104837370D02*
X147415182Y-104918182D01*
X147415182Y-104918182D02*
X147415182Y-104972057D01*
X147415182Y-104972057D02*
X147388245Y-105052869D01*
X147388245Y-105052869D02*
X147172746Y-105268368D01*
X148304117Y-104675745D02*
X147980868Y-104998994D01*
X148142492Y-104837370D02*
X147576807Y-104271684D01*
X147576807Y-104271684D02*
X147603744Y-104406371D01*
X147603744Y-104406371D02*
X147603744Y-104514121D01*
X147603744Y-104514121D02*
X147576807Y-104594933D01*
X148842865Y-104136997D02*
X148519616Y-104460246D01*
X148681240Y-104298621D02*
X148115555Y-103732936D01*
X148115555Y-103732936D02*
X148142492Y-103867623D01*
X148142492Y-103867623D02*
X148142492Y-103975373D01*
X148142492Y-103975373D02*
X148115555Y-104056185D01*
X146603372Y-138351494D02*
X146522560Y-138378431D01*
X146522560Y-138378431D02*
X146441748Y-138459243D01*
X146441748Y-138459243D02*
X146387873Y-138566993D01*
X146387873Y-138566993D02*
X146387873Y-138674742D01*
X146387873Y-138674742D02*
X146414810Y-138755555D01*
X146414810Y-138755555D02*
X146495623Y-138890242D01*
X146495623Y-138890242D02*
X146576435Y-138971054D01*
X146576435Y-138971054D02*
X146711122Y-139051866D01*
X146711122Y-139051866D02*
X146791934Y-139078803D01*
X146791934Y-139078803D02*
X146899684Y-139078803D01*
X146899684Y-139078803D02*
X147007433Y-139024929D01*
X147007433Y-139024929D02*
X147061308Y-138971054D01*
X147061308Y-138971054D02*
X147115183Y-138863304D01*
X147115183Y-138863304D02*
X147115183Y-138809429D01*
X147115183Y-138809429D02*
X146926621Y-138620868D01*
X146926621Y-138620868D02*
X146818871Y-138728617D01*
X147411494Y-138620868D02*
X146845809Y-138055182D01*
X146845809Y-138055182D02*
X147061308Y-137839683D01*
X147061308Y-137839683D02*
X147142120Y-137812746D01*
X147142120Y-137812746D02*
X147195995Y-137812746D01*
X147195995Y-137812746D02*
X147276807Y-137839683D01*
X147276807Y-137839683D02*
X147357619Y-137920495D01*
X147357619Y-137920495D02*
X147384557Y-138001307D01*
X147384557Y-138001307D02*
X147384557Y-138055182D01*
X147384557Y-138055182D02*
X147357619Y-138135994D01*
X147357619Y-138135994D02*
X147142120Y-138351494D01*
X148273491Y-137758871D02*
X147950242Y-138082120D01*
X148111867Y-137920495D02*
X147546181Y-137354810D01*
X147546181Y-137354810D02*
X147573119Y-137489497D01*
X147573119Y-137489497D02*
X147573119Y-137597246D01*
X147573119Y-137597246D02*
X147546181Y-137678059D01*
X120379998Y-105590868D02*
X120299185Y-105617805D01*
X120299185Y-105617805D02*
X120218373Y-105698618D01*
X120218373Y-105698618D02*
X120164498Y-105806367D01*
X120164498Y-105806367D02*
X120164498Y-105914117D01*
X120164498Y-105914117D02*
X120191436Y-105994929D01*
X120191436Y-105994929D02*
X120272248Y-106129616D01*
X120272248Y-106129616D02*
X120353060Y-106210428D01*
X120353060Y-106210428D02*
X120487747Y-106291241D01*
X120487747Y-106291241D02*
X120568560Y-106318178D01*
X120568560Y-106318178D02*
X120676309Y-106318178D01*
X120676309Y-106318178D02*
X120784059Y-106264303D01*
X120784059Y-106264303D02*
X120837934Y-106210428D01*
X120837934Y-106210428D02*
X120891808Y-106102679D01*
X120891808Y-106102679D02*
X120891808Y-106048804D01*
X120891808Y-106048804D02*
X120703247Y-105860242D01*
X120703247Y-105860242D02*
X120595497Y-105967992D01*
X121188120Y-105860242D02*
X120622434Y-105294557D01*
X120622434Y-105294557D02*
X120837934Y-105079057D01*
X120837934Y-105079057D02*
X120918746Y-105052120D01*
X120918746Y-105052120D02*
X120972621Y-105052120D01*
X120972621Y-105052120D02*
X121053433Y-105079057D01*
X121053433Y-105079057D02*
X121134245Y-105159870D01*
X121134245Y-105159870D02*
X121161182Y-105240682D01*
X121161182Y-105240682D02*
X121161182Y-105294557D01*
X121161182Y-105294557D02*
X121134245Y-105375369D01*
X121134245Y-105375369D02*
X120918746Y-105590868D01*
X121215057Y-104809683D02*
X121215057Y-104755809D01*
X121215057Y-104755809D02*
X121241995Y-104674996D01*
X121241995Y-104674996D02*
X121376682Y-104540309D01*
X121376682Y-104540309D02*
X121457494Y-104513372D01*
X121457494Y-104513372D02*
X121511369Y-104513372D01*
X121511369Y-104513372D02*
X121592181Y-104540309D01*
X121592181Y-104540309D02*
X121646056Y-104594184D01*
X121646056Y-104594184D02*
X121699930Y-104701934D01*
X121699930Y-104701934D02*
X121699930Y-105348431D01*
X121699930Y-105348431D02*
X122050117Y-104998245D01*
X121834618Y-104082373D02*
X121888492Y-104028499D01*
X121888492Y-104028499D02*
X121969305Y-104001561D01*
X121969305Y-104001561D02*
X122023179Y-104001561D01*
X122023179Y-104001561D02*
X122103992Y-104028499D01*
X122103992Y-104028499D02*
X122238679Y-104109311D01*
X122238679Y-104109311D02*
X122373366Y-104243998D01*
X122373366Y-104243998D02*
X122454178Y-104378685D01*
X122454178Y-104378685D02*
X122481115Y-104459497D01*
X122481115Y-104459497D02*
X122481115Y-104513372D01*
X122481115Y-104513372D02*
X122454178Y-104594184D01*
X122454178Y-104594184D02*
X122400303Y-104648059D01*
X122400303Y-104648059D02*
X122319491Y-104674996D01*
X122319491Y-104674996D02*
X122265616Y-104674996D01*
X122265616Y-104674996D02*
X122184804Y-104648059D01*
X122184804Y-104648059D02*
X122050117Y-104567247D01*
X122050117Y-104567247D02*
X121915430Y-104432560D01*
X121915430Y-104432560D02*
X121834618Y-104297873D01*
X121834618Y-104297873D02*
X121807680Y-104217060D01*
X121807680Y-104217060D02*
X121807680Y-104163186D01*
X121807680Y-104163186D02*
X121834618Y-104082373D01*
X146487998Y-100188368D02*
X146407185Y-100215305D01*
X146407185Y-100215305D02*
X146326373Y-100296118D01*
X146326373Y-100296118D02*
X146272498Y-100403867D01*
X146272498Y-100403867D02*
X146272498Y-100511617D01*
X146272498Y-100511617D02*
X146299436Y-100592429D01*
X146299436Y-100592429D02*
X146380248Y-100727116D01*
X146380248Y-100727116D02*
X146461060Y-100807928D01*
X146461060Y-100807928D02*
X146595747Y-100888741D01*
X146595747Y-100888741D02*
X146676560Y-100915678D01*
X146676560Y-100915678D02*
X146784309Y-100915678D01*
X146784309Y-100915678D02*
X146892059Y-100861803D01*
X146892059Y-100861803D02*
X146945934Y-100807928D01*
X146945934Y-100807928D02*
X146999808Y-100700179D01*
X146999808Y-100700179D02*
X146999808Y-100646304D01*
X146999808Y-100646304D02*
X146811247Y-100457742D01*
X146811247Y-100457742D02*
X146703497Y-100565492D01*
X147296120Y-100457742D02*
X146730434Y-99892057D01*
X146730434Y-99892057D02*
X146945934Y-99676557D01*
X146945934Y-99676557D02*
X147026746Y-99649620D01*
X147026746Y-99649620D02*
X147080621Y-99649620D01*
X147080621Y-99649620D02*
X147161433Y-99676557D01*
X147161433Y-99676557D02*
X147242245Y-99757370D01*
X147242245Y-99757370D02*
X147269182Y-99838182D01*
X147269182Y-99838182D02*
X147269182Y-99892057D01*
X147269182Y-99892057D02*
X147242245Y-99972869D01*
X147242245Y-99972869D02*
X147026746Y-100188368D01*
X148158117Y-99595745D02*
X147834868Y-99918994D01*
X147996492Y-99757370D02*
X147430807Y-99191684D01*
X147430807Y-99191684D02*
X147457744Y-99326371D01*
X147457744Y-99326371D02*
X147457744Y-99434121D01*
X147457744Y-99434121D02*
X147430807Y-99514933D01*
X147780993Y-98841498D02*
X148131179Y-98491312D01*
X148131179Y-98491312D02*
X148158117Y-98895373D01*
X148158117Y-98895373D02*
X148238929Y-98814560D01*
X148238929Y-98814560D02*
X148319741Y-98787623D01*
X148319741Y-98787623D02*
X148373616Y-98787623D01*
X148373616Y-98787623D02*
X148454428Y-98814560D01*
X148454428Y-98814560D02*
X148589115Y-98949247D01*
X148589115Y-98949247D02*
X148616053Y-99030060D01*
X148616053Y-99030060D02*
X148616053Y-99083934D01*
X148616053Y-99083934D02*
X148589115Y-99164747D01*
X148589115Y-99164747D02*
X148427491Y-99326371D01*
X148427491Y-99326371D02*
X148346679Y-99353308D01*
X148346679Y-99353308D02*
X148292804Y-99353308D01*
X120379998Y-118290868D02*
X120299185Y-118317805D01*
X120299185Y-118317805D02*
X120218373Y-118398618D01*
X120218373Y-118398618D02*
X120164498Y-118506367D01*
X120164498Y-118506367D02*
X120164498Y-118614117D01*
X120164498Y-118614117D02*
X120191436Y-118694929D01*
X120191436Y-118694929D02*
X120272248Y-118829616D01*
X120272248Y-118829616D02*
X120353060Y-118910428D01*
X120353060Y-118910428D02*
X120487747Y-118991241D01*
X120487747Y-118991241D02*
X120568560Y-119018178D01*
X120568560Y-119018178D02*
X120676309Y-119018178D01*
X120676309Y-119018178D02*
X120784059Y-118964303D01*
X120784059Y-118964303D02*
X120837934Y-118910428D01*
X120837934Y-118910428D02*
X120891808Y-118802679D01*
X120891808Y-118802679D02*
X120891808Y-118748804D01*
X120891808Y-118748804D02*
X120703247Y-118560242D01*
X120703247Y-118560242D02*
X120595497Y-118667992D01*
X121188120Y-118560242D02*
X120622434Y-117994557D01*
X120622434Y-117994557D02*
X120837934Y-117779057D01*
X120837934Y-117779057D02*
X120918746Y-117752120D01*
X120918746Y-117752120D02*
X120972621Y-117752120D01*
X120972621Y-117752120D02*
X121053433Y-117779057D01*
X121053433Y-117779057D02*
X121134245Y-117859870D01*
X121134245Y-117859870D02*
X121161182Y-117940682D01*
X121161182Y-117940682D02*
X121161182Y-117994557D01*
X121161182Y-117994557D02*
X121134245Y-118075369D01*
X121134245Y-118075369D02*
X120918746Y-118290868D01*
X121215057Y-117509683D02*
X121215057Y-117455809D01*
X121215057Y-117455809D02*
X121241995Y-117374996D01*
X121241995Y-117374996D02*
X121376682Y-117240309D01*
X121376682Y-117240309D02*
X121457494Y-117213372D01*
X121457494Y-117213372D02*
X121511369Y-117213372D01*
X121511369Y-117213372D02*
X121592181Y-117240309D01*
X121592181Y-117240309D02*
X121646056Y-117294184D01*
X121646056Y-117294184D02*
X121699930Y-117401934D01*
X121699930Y-117401934D02*
X121699930Y-118048431D01*
X121699930Y-118048431D02*
X122050117Y-117698245D01*
X121969305Y-116647686D02*
X121861555Y-116755436D01*
X121861555Y-116755436D02*
X121834618Y-116836248D01*
X121834618Y-116836248D02*
X121834618Y-116890123D01*
X121834618Y-116890123D02*
X121861555Y-117024810D01*
X121861555Y-117024810D02*
X121942367Y-117159497D01*
X121942367Y-117159497D02*
X122157866Y-117374996D01*
X122157866Y-117374996D02*
X122238679Y-117401934D01*
X122238679Y-117401934D02*
X122292553Y-117401934D01*
X122292553Y-117401934D02*
X122373366Y-117374996D01*
X122373366Y-117374996D02*
X122481115Y-117267247D01*
X122481115Y-117267247D02*
X122508053Y-117186434D01*
X122508053Y-117186434D02*
X122508053Y-117132560D01*
X122508053Y-117132560D02*
X122481115Y-117051747D01*
X122481115Y-117051747D02*
X122346428Y-116917060D01*
X122346428Y-116917060D02*
X122265616Y-116890123D01*
X122265616Y-116890123D02*
X122211741Y-116890123D01*
X122211741Y-116890123D02*
X122130929Y-116917060D01*
X122130929Y-116917060D02*
X122023179Y-117024810D01*
X122023179Y-117024810D02*
X121996242Y-117105622D01*
X121996242Y-117105622D02*
X121996242Y-117159497D01*
X121996242Y-117159497D02*
X122023179Y-117240309D01*
X120379998Y-95430868D02*
X120299185Y-95457805D01*
X120299185Y-95457805D02*
X120218373Y-95538618D01*
X120218373Y-95538618D02*
X120164498Y-95646367D01*
X120164498Y-95646367D02*
X120164498Y-95754117D01*
X120164498Y-95754117D02*
X120191436Y-95834929D01*
X120191436Y-95834929D02*
X120272248Y-95969616D01*
X120272248Y-95969616D02*
X120353060Y-96050428D01*
X120353060Y-96050428D02*
X120487747Y-96131241D01*
X120487747Y-96131241D02*
X120568560Y-96158178D01*
X120568560Y-96158178D02*
X120676309Y-96158178D01*
X120676309Y-96158178D02*
X120784059Y-96104303D01*
X120784059Y-96104303D02*
X120837934Y-96050428D01*
X120837934Y-96050428D02*
X120891808Y-95942679D01*
X120891808Y-95942679D02*
X120891808Y-95888804D01*
X120891808Y-95888804D02*
X120703247Y-95700242D01*
X120703247Y-95700242D02*
X120595497Y-95807992D01*
X121188120Y-95700242D02*
X120622434Y-95134557D01*
X120622434Y-95134557D02*
X120837934Y-94919057D01*
X120837934Y-94919057D02*
X120918746Y-94892120D01*
X120918746Y-94892120D02*
X120972621Y-94892120D01*
X120972621Y-94892120D02*
X121053433Y-94919057D01*
X121053433Y-94919057D02*
X121134245Y-94999870D01*
X121134245Y-94999870D02*
X121161182Y-95080682D01*
X121161182Y-95080682D02*
X121161182Y-95134557D01*
X121161182Y-95134557D02*
X121134245Y-95215369D01*
X121134245Y-95215369D02*
X120918746Y-95430868D01*
X122050117Y-94838245D02*
X121726868Y-95161494D01*
X121888492Y-94999870D02*
X121322807Y-94434184D01*
X121322807Y-94434184D02*
X121349744Y-94568871D01*
X121349744Y-94568871D02*
X121349744Y-94676621D01*
X121349744Y-94676621D02*
X121322807Y-94757433D01*
X121672993Y-94083998D02*
X122050117Y-93706874D01*
X122050117Y-93706874D02*
X122373366Y-94514996D01*
X120379998Y-120820868D02*
X120299185Y-120847805D01*
X120299185Y-120847805D02*
X120218373Y-120928618D01*
X120218373Y-120928618D02*
X120164498Y-121036367D01*
X120164498Y-121036367D02*
X120164498Y-121144117D01*
X120164498Y-121144117D02*
X120191436Y-121224929D01*
X120191436Y-121224929D02*
X120272248Y-121359616D01*
X120272248Y-121359616D02*
X120353060Y-121440428D01*
X120353060Y-121440428D02*
X120487747Y-121521241D01*
X120487747Y-121521241D02*
X120568560Y-121548178D01*
X120568560Y-121548178D02*
X120676309Y-121548178D01*
X120676309Y-121548178D02*
X120784059Y-121494303D01*
X120784059Y-121494303D02*
X120837934Y-121440428D01*
X120837934Y-121440428D02*
X120891808Y-121332679D01*
X120891808Y-121332679D02*
X120891808Y-121278804D01*
X120891808Y-121278804D02*
X120703247Y-121090242D01*
X120703247Y-121090242D02*
X120595497Y-121197992D01*
X121188120Y-121090242D02*
X120622434Y-120524557D01*
X120622434Y-120524557D02*
X120837934Y-120309057D01*
X120837934Y-120309057D02*
X120918746Y-120282120D01*
X120918746Y-120282120D02*
X120972621Y-120282120D01*
X120972621Y-120282120D02*
X121053433Y-120309057D01*
X121053433Y-120309057D02*
X121134245Y-120389870D01*
X121134245Y-120389870D02*
X121161182Y-120470682D01*
X121161182Y-120470682D02*
X121161182Y-120524557D01*
X121161182Y-120524557D02*
X121134245Y-120605369D01*
X121134245Y-120605369D02*
X120918746Y-120820868D01*
X121215057Y-120039683D02*
X121215057Y-119985809D01*
X121215057Y-119985809D02*
X121241995Y-119904996D01*
X121241995Y-119904996D02*
X121376682Y-119770309D01*
X121376682Y-119770309D02*
X121457494Y-119743372D01*
X121457494Y-119743372D02*
X121511369Y-119743372D01*
X121511369Y-119743372D02*
X121592181Y-119770309D01*
X121592181Y-119770309D02*
X121646056Y-119824184D01*
X121646056Y-119824184D02*
X121699930Y-119931934D01*
X121699930Y-119931934D02*
X121699930Y-120578431D01*
X121699930Y-120578431D02*
X122050117Y-120228245D01*
X121672993Y-119473998D02*
X122050117Y-119096874D01*
X122050117Y-119096874D02*
X122373366Y-119904996D01*
X146403372Y-118051494D02*
X146322560Y-118078431D01*
X146322560Y-118078431D02*
X146241748Y-118159243D01*
X146241748Y-118159243D02*
X146187873Y-118266993D01*
X146187873Y-118266993D02*
X146187873Y-118374742D01*
X146187873Y-118374742D02*
X146214810Y-118455555D01*
X146214810Y-118455555D02*
X146295623Y-118590242D01*
X146295623Y-118590242D02*
X146376435Y-118671054D01*
X146376435Y-118671054D02*
X146511122Y-118751866D01*
X146511122Y-118751866D02*
X146591934Y-118778803D01*
X146591934Y-118778803D02*
X146699684Y-118778803D01*
X146699684Y-118778803D02*
X146807433Y-118724929D01*
X146807433Y-118724929D02*
X146861308Y-118671054D01*
X146861308Y-118671054D02*
X146915183Y-118563304D01*
X146915183Y-118563304D02*
X146915183Y-118509429D01*
X146915183Y-118509429D02*
X146726621Y-118320868D01*
X146726621Y-118320868D02*
X146618871Y-118428617D01*
X147211494Y-118320868D02*
X146645809Y-117755182D01*
X146645809Y-117755182D02*
X146861308Y-117539683D01*
X146861308Y-117539683D02*
X146942120Y-117512746D01*
X146942120Y-117512746D02*
X146995995Y-117512746D01*
X146995995Y-117512746D02*
X147076807Y-117539683D01*
X147076807Y-117539683D02*
X147157619Y-117620495D01*
X147157619Y-117620495D02*
X147184557Y-117701307D01*
X147184557Y-117701307D02*
X147184557Y-117755182D01*
X147184557Y-117755182D02*
X147157619Y-117835994D01*
X147157619Y-117835994D02*
X146942120Y-118051494D01*
X147157619Y-117243372D02*
X147534743Y-116866248D01*
X147534743Y-116866248D02*
X147857992Y-117674370D01*
X120876435Y-110428431D02*
X120795623Y-110455368D01*
X120795623Y-110455368D02*
X120714811Y-110536180D01*
X120714811Y-110536180D02*
X120660936Y-110643930D01*
X120660936Y-110643930D02*
X120660936Y-110751680D01*
X120660936Y-110751680D02*
X120687873Y-110832492D01*
X120687873Y-110832492D02*
X120768685Y-110967179D01*
X120768685Y-110967179D02*
X120849498Y-111047991D01*
X120849498Y-111047991D02*
X120984185Y-111128803D01*
X120984185Y-111128803D02*
X121064997Y-111155741D01*
X121064997Y-111155741D02*
X121172746Y-111155741D01*
X121172746Y-111155741D02*
X121280496Y-111101866D01*
X121280496Y-111101866D02*
X121334371Y-111047991D01*
X121334371Y-111047991D02*
X121388246Y-110940241D01*
X121388246Y-110940241D02*
X121388246Y-110886367D01*
X121388246Y-110886367D02*
X121199684Y-110697805D01*
X121199684Y-110697805D02*
X121091934Y-110805554D01*
X121684557Y-110697805D02*
X121118872Y-110132119D01*
X121118872Y-110132119D02*
X122007806Y-110374556D01*
X122007806Y-110374556D02*
X121442120Y-109808871D01*
X122277180Y-110105182D02*
X121711494Y-109539497D01*
X121711494Y-109539497D02*
X121846181Y-109404810D01*
X121846181Y-109404810D02*
X121953931Y-109350935D01*
X121953931Y-109350935D02*
X122061680Y-109350935D01*
X122061680Y-109350935D02*
X122142493Y-109377872D01*
X122142493Y-109377872D02*
X122277180Y-109458685D01*
X122277180Y-109458685D02*
X122357992Y-109539497D01*
X122357992Y-109539497D02*
X122438804Y-109674184D01*
X122438804Y-109674184D02*
X122465741Y-109754996D01*
X122465741Y-109754996D02*
X122465741Y-109862746D01*
X122465741Y-109862746D02*
X122411867Y-109970495D01*
X122411867Y-109970495D02*
X122277180Y-110105182D01*
X146503372Y-130721494D02*
X146422560Y-130748431D01*
X146422560Y-130748431D02*
X146341748Y-130829243D01*
X146341748Y-130829243D02*
X146287873Y-130936993D01*
X146287873Y-130936993D02*
X146287873Y-131044742D01*
X146287873Y-131044742D02*
X146314810Y-131125555D01*
X146314810Y-131125555D02*
X146395623Y-131260242D01*
X146395623Y-131260242D02*
X146476435Y-131341054D01*
X146476435Y-131341054D02*
X146611122Y-131421866D01*
X146611122Y-131421866D02*
X146691934Y-131448803D01*
X146691934Y-131448803D02*
X146799684Y-131448803D01*
X146799684Y-131448803D02*
X146907433Y-131394929D01*
X146907433Y-131394929D02*
X146961308Y-131341054D01*
X146961308Y-131341054D02*
X147015183Y-131233304D01*
X147015183Y-131233304D02*
X147015183Y-131179429D01*
X147015183Y-131179429D02*
X146826621Y-130990868D01*
X146826621Y-130990868D02*
X146718871Y-131098617D01*
X147311494Y-130990868D02*
X146745809Y-130425182D01*
X146745809Y-130425182D02*
X146961308Y-130209683D01*
X146961308Y-130209683D02*
X147042120Y-130182746D01*
X147042120Y-130182746D02*
X147095995Y-130182746D01*
X147095995Y-130182746D02*
X147176807Y-130209683D01*
X147176807Y-130209683D02*
X147257619Y-130290495D01*
X147257619Y-130290495D02*
X147284557Y-130371307D01*
X147284557Y-130371307D02*
X147284557Y-130425182D01*
X147284557Y-130425182D02*
X147257619Y-130505994D01*
X147257619Y-130505994D02*
X147042120Y-130721494D01*
X147257619Y-129913372D02*
X147607806Y-129563185D01*
X147607806Y-129563185D02*
X147634743Y-129967246D01*
X147634743Y-129967246D02*
X147715555Y-129886434D01*
X147715555Y-129886434D02*
X147796367Y-129859497D01*
X147796367Y-129859497D02*
X147850242Y-129859497D01*
X147850242Y-129859497D02*
X147931054Y-129886434D01*
X147931054Y-129886434D02*
X148065741Y-130021121D01*
X148065741Y-130021121D02*
X148092679Y-130101933D01*
X148092679Y-130101933D02*
X148092679Y-130155808D01*
X148092679Y-130155808D02*
X148065741Y-130236620D01*
X148065741Y-130236620D02*
X147904117Y-130398245D01*
X147904117Y-130398245D02*
X147823305Y-130425182D01*
X147823305Y-130425182D02*
X147769430Y-130425182D01*
X120876435Y-135828431D02*
X120795623Y-135855368D01*
X120795623Y-135855368D02*
X120714811Y-135936180D01*
X120714811Y-135936180D02*
X120660936Y-136043930D01*
X120660936Y-136043930D02*
X120660936Y-136151680D01*
X120660936Y-136151680D02*
X120687873Y-136232492D01*
X120687873Y-136232492D02*
X120768685Y-136367179D01*
X120768685Y-136367179D02*
X120849498Y-136447991D01*
X120849498Y-136447991D02*
X120984185Y-136528803D01*
X120984185Y-136528803D02*
X121064997Y-136555741D01*
X121064997Y-136555741D02*
X121172746Y-136555741D01*
X121172746Y-136555741D02*
X121280496Y-136501866D01*
X121280496Y-136501866D02*
X121334371Y-136447991D01*
X121334371Y-136447991D02*
X121388246Y-136340241D01*
X121388246Y-136340241D02*
X121388246Y-136286367D01*
X121388246Y-136286367D02*
X121199684Y-136097805D01*
X121199684Y-136097805D02*
X121091934Y-136205554D01*
X121684557Y-136097805D02*
X121118872Y-135532119D01*
X121118872Y-135532119D02*
X122007806Y-135774556D01*
X122007806Y-135774556D02*
X121442120Y-135208871D01*
X122277180Y-135505182D02*
X121711494Y-134939497D01*
X121711494Y-134939497D02*
X121846181Y-134804810D01*
X121846181Y-134804810D02*
X121953931Y-134750935D01*
X121953931Y-134750935D02*
X122061680Y-134750935D01*
X122061680Y-134750935D02*
X122142493Y-134777872D01*
X122142493Y-134777872D02*
X122277180Y-134858685D01*
X122277180Y-134858685D02*
X122357992Y-134939497D01*
X122357992Y-134939497D02*
X122438804Y-135074184D01*
X122438804Y-135074184D02*
X122465741Y-135154996D01*
X122465741Y-135154996D02*
X122465741Y-135262746D01*
X122465741Y-135262746D02*
X122411867Y-135370495D01*
X122411867Y-135370495D02*
X122277180Y-135505182D01*
X146487998Y-108130868D02*
X146407185Y-108157805D01*
X146407185Y-108157805D02*
X146326373Y-108238618D01*
X146326373Y-108238618D02*
X146272498Y-108346367D01*
X146272498Y-108346367D02*
X146272498Y-108454117D01*
X146272498Y-108454117D02*
X146299436Y-108534929D01*
X146299436Y-108534929D02*
X146380248Y-108669616D01*
X146380248Y-108669616D02*
X146461060Y-108750428D01*
X146461060Y-108750428D02*
X146595747Y-108831241D01*
X146595747Y-108831241D02*
X146676560Y-108858178D01*
X146676560Y-108858178D02*
X146784309Y-108858178D01*
X146784309Y-108858178D02*
X146892059Y-108804303D01*
X146892059Y-108804303D02*
X146945934Y-108750428D01*
X146945934Y-108750428D02*
X146999808Y-108642679D01*
X146999808Y-108642679D02*
X146999808Y-108588804D01*
X146999808Y-108588804D02*
X146811247Y-108400242D01*
X146811247Y-108400242D02*
X146703497Y-108507992D01*
X147296120Y-108400242D02*
X146730434Y-107834557D01*
X146730434Y-107834557D02*
X146945934Y-107619057D01*
X146945934Y-107619057D02*
X147026746Y-107592120D01*
X147026746Y-107592120D02*
X147080621Y-107592120D01*
X147080621Y-107592120D02*
X147161433Y-107619057D01*
X147161433Y-107619057D02*
X147242245Y-107699870D01*
X147242245Y-107699870D02*
X147269182Y-107780682D01*
X147269182Y-107780682D02*
X147269182Y-107834557D01*
X147269182Y-107834557D02*
X147242245Y-107915369D01*
X147242245Y-107915369D02*
X147026746Y-108130868D01*
X148158117Y-107538245D02*
X147834868Y-107861494D01*
X147996492Y-107699870D02*
X147430807Y-107134184D01*
X147430807Y-107134184D02*
X147457744Y-107268871D01*
X147457744Y-107268871D02*
X147457744Y-107376621D01*
X147457744Y-107376621D02*
X147430807Y-107457433D01*
X147942618Y-106622373D02*
X147996492Y-106568499D01*
X147996492Y-106568499D02*
X148077305Y-106541561D01*
X148077305Y-106541561D02*
X148131179Y-106541561D01*
X148131179Y-106541561D02*
X148211992Y-106568499D01*
X148211992Y-106568499D02*
X148346679Y-106649311D01*
X148346679Y-106649311D02*
X148481366Y-106783998D01*
X148481366Y-106783998D02*
X148562178Y-106918685D01*
X148562178Y-106918685D02*
X148589115Y-106999497D01*
X148589115Y-106999497D02*
X148589115Y-107053372D01*
X148589115Y-107053372D02*
X148562178Y-107134184D01*
X148562178Y-107134184D02*
X148508303Y-107188059D01*
X148508303Y-107188059D02*
X148427491Y-107214996D01*
X148427491Y-107214996D02*
X148373616Y-107214996D01*
X148373616Y-107214996D02*
X148292804Y-107188059D01*
X148292804Y-107188059D02*
X148158117Y-107107247D01*
X148158117Y-107107247D02*
X148023430Y-106972560D01*
X148023430Y-106972560D02*
X147942618Y-106837873D01*
X147942618Y-106837873D02*
X147915680Y-106757060D01*
X147915680Y-106757060D02*
X147915680Y-106703186D01*
X147915680Y-106703186D02*
X147942618Y-106622373D01*
X146503372Y-125641494D02*
X146422560Y-125668431D01*
X146422560Y-125668431D02*
X146341748Y-125749243D01*
X146341748Y-125749243D02*
X146287873Y-125856993D01*
X146287873Y-125856993D02*
X146287873Y-125964742D01*
X146287873Y-125964742D02*
X146314810Y-126045555D01*
X146314810Y-126045555D02*
X146395623Y-126180242D01*
X146395623Y-126180242D02*
X146476435Y-126261054D01*
X146476435Y-126261054D02*
X146611122Y-126341866D01*
X146611122Y-126341866D02*
X146691934Y-126368803D01*
X146691934Y-126368803D02*
X146799684Y-126368803D01*
X146799684Y-126368803D02*
X146907433Y-126314929D01*
X146907433Y-126314929D02*
X146961308Y-126261054D01*
X146961308Y-126261054D02*
X147015183Y-126153304D01*
X147015183Y-126153304D02*
X147015183Y-126099429D01*
X147015183Y-126099429D02*
X146826621Y-125910868D01*
X146826621Y-125910868D02*
X146718871Y-126018617D01*
X147311494Y-125910868D02*
X146745809Y-125345182D01*
X146745809Y-125345182D02*
X146961308Y-125129683D01*
X146961308Y-125129683D02*
X147042120Y-125102746D01*
X147042120Y-125102746D02*
X147095995Y-125102746D01*
X147095995Y-125102746D02*
X147176807Y-125129683D01*
X147176807Y-125129683D02*
X147257619Y-125210495D01*
X147257619Y-125210495D02*
X147284557Y-125291307D01*
X147284557Y-125291307D02*
X147284557Y-125345182D01*
X147284557Y-125345182D02*
X147257619Y-125425994D01*
X147257619Y-125425994D02*
X147042120Y-125641494D01*
X147580868Y-124510123D02*
X147311494Y-124779497D01*
X147311494Y-124779497D02*
X147553931Y-125075808D01*
X147553931Y-125075808D02*
X147553931Y-125021933D01*
X147553931Y-125021933D02*
X147580868Y-124941121D01*
X147580868Y-124941121D02*
X147715555Y-124806434D01*
X147715555Y-124806434D02*
X147796367Y-124779497D01*
X147796367Y-124779497D02*
X147850242Y-124779497D01*
X147850242Y-124779497D02*
X147931054Y-124806434D01*
X147931054Y-124806434D02*
X148065741Y-124941121D01*
X148065741Y-124941121D02*
X148092679Y-125021933D01*
X148092679Y-125021933D02*
X148092679Y-125075808D01*
X148092679Y-125075808D02*
X148065741Y-125156620D01*
X148065741Y-125156620D02*
X147931054Y-125291307D01*
X147931054Y-125291307D02*
X147850242Y-125318245D01*
X147850242Y-125318245D02*
X147796367Y-125318245D01*
X120379998Y-103050868D02*
X120299185Y-103077805D01*
X120299185Y-103077805D02*
X120218373Y-103158618D01*
X120218373Y-103158618D02*
X120164498Y-103266367D01*
X120164498Y-103266367D02*
X120164498Y-103374117D01*
X120164498Y-103374117D02*
X120191436Y-103454929D01*
X120191436Y-103454929D02*
X120272248Y-103589616D01*
X120272248Y-103589616D02*
X120353060Y-103670428D01*
X120353060Y-103670428D02*
X120487747Y-103751241D01*
X120487747Y-103751241D02*
X120568560Y-103778178D01*
X120568560Y-103778178D02*
X120676309Y-103778178D01*
X120676309Y-103778178D02*
X120784059Y-103724303D01*
X120784059Y-103724303D02*
X120837934Y-103670428D01*
X120837934Y-103670428D02*
X120891808Y-103562679D01*
X120891808Y-103562679D02*
X120891808Y-103508804D01*
X120891808Y-103508804D02*
X120703247Y-103320242D01*
X120703247Y-103320242D02*
X120595497Y-103427992D01*
X121188120Y-103320242D02*
X120622434Y-102754557D01*
X120622434Y-102754557D02*
X120837934Y-102539057D01*
X120837934Y-102539057D02*
X120918746Y-102512120D01*
X120918746Y-102512120D02*
X120972621Y-102512120D01*
X120972621Y-102512120D02*
X121053433Y-102539057D01*
X121053433Y-102539057D02*
X121134245Y-102619870D01*
X121134245Y-102619870D02*
X121161182Y-102700682D01*
X121161182Y-102700682D02*
X121161182Y-102754557D01*
X121161182Y-102754557D02*
X121134245Y-102835369D01*
X121134245Y-102835369D02*
X120918746Y-103050868D01*
X122050117Y-102458245D02*
X121726868Y-102781494D01*
X121888492Y-102619870D02*
X121322807Y-102054184D01*
X121322807Y-102054184D02*
X121349744Y-102188871D01*
X121349744Y-102188871D02*
X121349744Y-102296621D01*
X121349744Y-102296621D02*
X121322807Y-102377433D01*
X122319491Y-102188871D02*
X122427240Y-102081121D01*
X122427240Y-102081121D02*
X122454178Y-102000309D01*
X122454178Y-102000309D02*
X122454178Y-101946434D01*
X122454178Y-101946434D02*
X122427240Y-101811747D01*
X122427240Y-101811747D02*
X122346428Y-101677060D01*
X122346428Y-101677060D02*
X122130929Y-101461561D01*
X122130929Y-101461561D02*
X122050117Y-101434624D01*
X122050117Y-101434624D02*
X121996242Y-101434624D01*
X121996242Y-101434624D02*
X121915430Y-101461561D01*
X121915430Y-101461561D02*
X121807680Y-101569311D01*
X121807680Y-101569311D02*
X121780743Y-101650123D01*
X121780743Y-101650123D02*
X121780743Y-101703998D01*
X121780743Y-101703998D02*
X121807680Y-101784810D01*
X121807680Y-101784810D02*
X121942367Y-101919497D01*
X121942367Y-101919497D02*
X122023179Y-101946434D01*
X122023179Y-101946434D02*
X122077054Y-101946434D01*
X122077054Y-101946434D02*
X122157866Y-101919497D01*
X122157866Y-101919497D02*
X122265616Y-101811747D01*
X122265616Y-101811747D02*
X122292553Y-101730935D01*
X122292553Y-101730935D02*
X122292553Y-101677060D01*
X122292553Y-101677060D02*
X122265616Y-101596248D01*
X120379998Y-108120868D02*
X120299185Y-108147805D01*
X120299185Y-108147805D02*
X120218373Y-108228618D01*
X120218373Y-108228618D02*
X120164498Y-108336367D01*
X120164498Y-108336367D02*
X120164498Y-108444117D01*
X120164498Y-108444117D02*
X120191436Y-108524929D01*
X120191436Y-108524929D02*
X120272248Y-108659616D01*
X120272248Y-108659616D02*
X120353060Y-108740428D01*
X120353060Y-108740428D02*
X120487747Y-108821241D01*
X120487747Y-108821241D02*
X120568560Y-108848178D01*
X120568560Y-108848178D02*
X120676309Y-108848178D01*
X120676309Y-108848178D02*
X120784059Y-108794303D01*
X120784059Y-108794303D02*
X120837934Y-108740428D01*
X120837934Y-108740428D02*
X120891808Y-108632679D01*
X120891808Y-108632679D02*
X120891808Y-108578804D01*
X120891808Y-108578804D02*
X120703247Y-108390242D01*
X120703247Y-108390242D02*
X120595497Y-108497992D01*
X121188120Y-108390242D02*
X120622434Y-107824557D01*
X120622434Y-107824557D02*
X120837934Y-107609057D01*
X120837934Y-107609057D02*
X120918746Y-107582120D01*
X120918746Y-107582120D02*
X120972621Y-107582120D01*
X120972621Y-107582120D02*
X121053433Y-107609057D01*
X121053433Y-107609057D02*
X121134245Y-107689870D01*
X121134245Y-107689870D02*
X121161182Y-107770682D01*
X121161182Y-107770682D02*
X121161182Y-107824557D01*
X121161182Y-107824557D02*
X121134245Y-107905369D01*
X121134245Y-107905369D02*
X120918746Y-108120868D01*
X121215057Y-107339683D02*
X121215057Y-107285809D01*
X121215057Y-107285809D02*
X121241995Y-107204996D01*
X121241995Y-107204996D02*
X121376682Y-107070309D01*
X121376682Y-107070309D02*
X121457494Y-107043372D01*
X121457494Y-107043372D02*
X121511369Y-107043372D01*
X121511369Y-107043372D02*
X121592181Y-107070309D01*
X121592181Y-107070309D02*
X121646056Y-107124184D01*
X121646056Y-107124184D02*
X121699930Y-107231934D01*
X121699930Y-107231934D02*
X121699930Y-107878431D01*
X121699930Y-107878431D02*
X122050117Y-107528245D01*
X122588865Y-106989497D02*
X122265616Y-107312746D01*
X122427240Y-107151121D02*
X121861555Y-106585436D01*
X121861555Y-106585436D02*
X121888492Y-106720123D01*
X121888492Y-106720123D02*
X121888492Y-106827873D01*
X121888492Y-106827873D02*
X121861555Y-106908685D01*
X120379998Y-100510868D02*
X120299185Y-100537805D01*
X120299185Y-100537805D02*
X120218373Y-100618618D01*
X120218373Y-100618618D02*
X120164498Y-100726367D01*
X120164498Y-100726367D02*
X120164498Y-100834117D01*
X120164498Y-100834117D02*
X120191436Y-100914929D01*
X120191436Y-100914929D02*
X120272248Y-101049616D01*
X120272248Y-101049616D02*
X120353060Y-101130428D01*
X120353060Y-101130428D02*
X120487747Y-101211241D01*
X120487747Y-101211241D02*
X120568560Y-101238178D01*
X120568560Y-101238178D02*
X120676309Y-101238178D01*
X120676309Y-101238178D02*
X120784059Y-101184303D01*
X120784059Y-101184303D02*
X120837934Y-101130428D01*
X120837934Y-101130428D02*
X120891808Y-101022679D01*
X120891808Y-101022679D02*
X120891808Y-100968804D01*
X120891808Y-100968804D02*
X120703247Y-100780242D01*
X120703247Y-100780242D02*
X120595497Y-100887992D01*
X121188120Y-100780242D02*
X120622434Y-100214557D01*
X120622434Y-100214557D02*
X120837934Y-99999057D01*
X120837934Y-99999057D02*
X120918746Y-99972120D01*
X120918746Y-99972120D02*
X120972621Y-99972120D01*
X120972621Y-99972120D02*
X121053433Y-99999057D01*
X121053433Y-99999057D02*
X121134245Y-100079870D01*
X121134245Y-100079870D02*
X121161182Y-100160682D01*
X121161182Y-100160682D02*
X121161182Y-100214557D01*
X121161182Y-100214557D02*
X121134245Y-100295369D01*
X121134245Y-100295369D02*
X120918746Y-100510868D01*
X122050117Y-99918245D02*
X121726868Y-100241494D01*
X121888492Y-100079870D02*
X121322807Y-99514184D01*
X121322807Y-99514184D02*
X121349744Y-99648871D01*
X121349744Y-99648871D02*
X121349744Y-99756621D01*
X121349744Y-99756621D02*
X121322807Y-99837433D01*
X122050117Y-99271747D02*
X121969305Y-99298685D01*
X121969305Y-99298685D02*
X121915430Y-99298685D01*
X121915430Y-99298685D02*
X121834618Y-99271747D01*
X121834618Y-99271747D02*
X121807680Y-99244810D01*
X121807680Y-99244810D02*
X121780743Y-99163998D01*
X121780743Y-99163998D02*
X121780743Y-99110123D01*
X121780743Y-99110123D02*
X121807680Y-99029311D01*
X121807680Y-99029311D02*
X121915430Y-98921561D01*
X121915430Y-98921561D02*
X121996242Y-98894624D01*
X121996242Y-98894624D02*
X122050117Y-98894624D01*
X122050117Y-98894624D02*
X122130929Y-98921561D01*
X122130929Y-98921561D02*
X122157866Y-98948499D01*
X122157866Y-98948499D02*
X122184804Y-99029311D01*
X122184804Y-99029311D02*
X122184804Y-99083186D01*
X122184804Y-99083186D02*
X122157866Y-99163998D01*
X122157866Y-99163998D02*
X122050117Y-99271747D01*
X122050117Y-99271747D02*
X122023179Y-99352560D01*
X122023179Y-99352560D02*
X122023179Y-99406434D01*
X122023179Y-99406434D02*
X122050117Y-99487247D01*
X122050117Y-99487247D02*
X122157866Y-99594996D01*
X122157866Y-99594996D02*
X122238679Y-99621934D01*
X122238679Y-99621934D02*
X122292553Y-99621934D01*
X122292553Y-99621934D02*
X122373366Y-99594996D01*
X122373366Y-99594996D02*
X122481115Y-99487247D01*
X122481115Y-99487247D02*
X122508053Y-99406434D01*
X122508053Y-99406434D02*
X122508053Y-99352560D01*
X122508053Y-99352560D02*
X122481115Y-99271747D01*
X122481115Y-99271747D02*
X122373366Y-99163998D01*
X122373366Y-99163998D02*
X122292553Y-99137060D01*
X122292553Y-99137060D02*
X122238679Y-99137060D01*
X122238679Y-99137060D02*
X122157866Y-99163998D01*
X114334819Y-135048094D02*
X113334819Y-135048094D01*
X113334819Y-135048094D02*
X113334819Y-134809999D01*
X113334819Y-134809999D02*
X113382438Y-134667142D01*
X113382438Y-134667142D02*
X113477676Y-134571904D01*
X113477676Y-134571904D02*
X113572914Y-134524285D01*
X113572914Y-134524285D02*
X113763390Y-134476666D01*
X113763390Y-134476666D02*
X113906247Y-134476666D01*
X113906247Y-134476666D02*
X114096723Y-134524285D01*
X114096723Y-134524285D02*
X114191961Y-134571904D01*
X114191961Y-134571904D02*
X114287200Y-134667142D01*
X114287200Y-134667142D02*
X114334819Y-134809999D01*
X114334819Y-134809999D02*
X114334819Y-135048094D01*
X114334819Y-133524285D02*
X114334819Y-134095713D01*
X114334819Y-133809999D02*
X113334819Y-133809999D01*
X113334819Y-133809999D02*
X113477676Y-133905237D01*
X113477676Y-133905237D02*
X113572914Y-134000475D01*
X113572914Y-134000475D02*
X113620533Y-134095713D01*
X114654819Y-138381904D02*
X113654819Y-138381904D01*
X114654819Y-137810476D02*
X114083390Y-138239047D01*
X113654819Y-137810476D02*
X114226247Y-138381904D01*
D12*
%TO.C,U1*%
X123890000Y-91130000D02*
X130690000Y-91130000D01*
X123890000Y-93930000D02*
X123890000Y-93530000D01*
X123890000Y-96530000D02*
X123890000Y-96130000D01*
X123890000Y-99030000D02*
X123890000Y-98630000D01*
X123890000Y-101530000D02*
X123890000Y-101130000D01*
X123890000Y-104130000D02*
X123890000Y-103730000D01*
X123890000Y-106630000D02*
X123890000Y-106230000D01*
X123890000Y-109230000D02*
X123890000Y-108830000D01*
X123890000Y-111730000D02*
X123890000Y-111330000D01*
X123890000Y-114330000D02*
X123890000Y-113930000D01*
X123890000Y-116830000D02*
X123890000Y-116430000D01*
X123890000Y-119330000D02*
X123890000Y-118930000D01*
X123890000Y-121930000D02*
X123890000Y-121530000D01*
X123890000Y-124430000D02*
X123890000Y-124030000D01*
X123890000Y-127030000D02*
X123890000Y-126630000D01*
X123890000Y-129530000D02*
X123890000Y-129130000D01*
X123890000Y-132030000D02*
X123890000Y-131630000D01*
X123890000Y-134630000D02*
X123890000Y-134230000D01*
X123890000Y-137130000D02*
X123890000Y-136730000D01*
X123890000Y-139730000D02*
X123890000Y-139330000D01*
X123890000Y-142130000D02*
X123890000Y-141830000D01*
X133290000Y-91130000D02*
X132890000Y-91130000D01*
X135890000Y-91130000D02*
X135490000Y-91130000D01*
X138090000Y-91130000D02*
X144890000Y-91130000D01*
X141883000Y-139463000D02*
X141883000Y-142130000D01*
X144890000Y-93930000D02*
X144890000Y-93530000D01*
X144890000Y-96530000D02*
X144890000Y-96130000D01*
X144890000Y-99030000D02*
X144890000Y-98630000D01*
X144890000Y-101530000D02*
X144890000Y-101130000D01*
X144890000Y-104130000D02*
X144890000Y-103730000D01*
X144890000Y-106630000D02*
X144890000Y-106230000D01*
X144890000Y-109230000D02*
X144890000Y-108830000D01*
X144890000Y-111730000D02*
X144890000Y-111330000D01*
X144890000Y-114330000D02*
X144890000Y-113930000D01*
X144890000Y-116830000D02*
X144890000Y-116430000D01*
X144890000Y-119330000D02*
X144890000Y-118930000D01*
X144890000Y-121930000D02*
X144890000Y-121530000D01*
X144890000Y-124430000D02*
X144890000Y-124030000D01*
X144890000Y-127030000D02*
X144890000Y-126630000D01*
X144890000Y-129530000D02*
X144890000Y-129130000D01*
X144890000Y-132030000D02*
X144890000Y-131630000D01*
X144890000Y-134630000D02*
X144890000Y-134230000D01*
X144890000Y-137130000D02*
X144890000Y-136730000D01*
X144890000Y-139463000D02*
X141883000Y-139463000D01*
X144890000Y-139730000D02*
X144890000Y-139330000D01*
X144890000Y-142130000D02*
X123890000Y-142130000D01*
X144890000Y-142130000D02*
X144890000Y-141830000D01*
%TO.C,D1*%
X114880000Y-132190000D02*
X114880000Y-136430000D01*
X114880000Y-135590000D02*
X117120000Y-135590000D01*
X114880000Y-135710000D02*
X117120000Y-135710000D01*
X114880000Y-135830000D02*
X117120000Y-135830000D01*
X114880000Y-136430000D02*
X117120000Y-136430000D01*
X116000000Y-131540000D02*
X116000000Y-132190000D01*
X116000000Y-137080000D02*
X116000000Y-136430000D01*
X117120000Y-132190000D02*
X114880000Y-132190000D01*
X117120000Y-136430000D02*
X117120000Y-132190000D01*
%TD*%
M02*
