M48
; DRILL file {KiCad 8.0.6} date 2025-03-18T08:59:13+0200
; FORMAT={-:-/ absolute / inch / decimal}
; #@! TF.CreationDate,2025-03-18T08:59:13+02:00
; #@! TF.GenerationSoftware,Kicad,Pcbnew,8.0.6
; #@! TF.FileFunction,Plated,1,2,PTH
FMAT,2
INCH
; #@! TA.AperFunction,Plated,PTH,ViaDrill
T1C0.0118
; #@! TA.AperFunction,Plated,PTH,ComponentDrill
T2C0.0315
; #@! TA.AperFunction,Plated,PTH,ComponentDrill
T3C0.0402
%
G90
G05
T1
X4.3898Y-4.7835
X5.3937Y-5.2362
X5.3949Y-5.3669
X5.4331Y-5.8268
X5.9767Y-5.8858
T2
X4.5669Y-5.1378
X4.5669Y-5.4378
T3
X4.9409Y-3.6417
X4.9409Y-3.7417
X4.9409Y-3.8417
X4.9409Y-3.9417
X4.9409Y-4.0417
X4.9409Y-4.1417
X4.9409Y-4.2417
X4.9409Y-4.3417
X4.9409Y-4.4417
X4.9409Y-4.5417
X4.9409Y-4.6417
X4.9409Y-4.7417
X4.9409Y-4.8417
X4.9409Y-4.9417
X4.9409Y-5.0417
X4.9409Y-5.1417
X4.9409Y-5.2417
X4.9409Y-5.3417
X4.9409Y-5.4417
X4.9409Y-5.5417
X5.0679Y-4.3713
X5.1679Y-4.3713
X5.2679Y-4.3713
X5.6409Y-3.6417
X5.6409Y-3.7417
X5.6409Y-3.8417
X5.6409Y-3.9417
X5.6409Y-4.0417
X5.6409Y-4.1417
X5.6409Y-4.2417
X5.6409Y-4.3417
X5.6409Y-4.4417
X5.6409Y-4.5417
X5.6409Y-4.6417
X5.6409Y-4.7417
X5.6409Y-4.8417
X5.6409Y-4.9417
X5.6409Y-5.0417
X5.6409Y-5.1417
X5.6409Y-5.2417
X5.6409Y-5.3417
X5.6409Y-5.4417
X5.6409Y-5.5417
M30
