%TF.GenerationSoftware,KiCad,Pcbnew,8.0.6*%
%TF.CreationDate,2025-03-18T08:59:08+02:00*%
%TF.ProjectId,SVI-328-PicoROM,5356492d-3332-4382-9d50-69636f524f4d,1.0*%
%TF.SameCoordinates,Original*%
%TF.FileFunction,Copper,L2,Bot*%
%TF.FilePolarity,Positive*%
%FSLAX46Y46*%
G04 Gerber Fmt 4.6, Leading zero omitted, Abs format (unit mm)*
G04 Created by KiCad (PCBNEW 8.0.6) date 2025-03-18 08:59:08*
%MOMM*%
%LPD*%
G01*
G04 APERTURE LIST*
%TA.AperFunction,ConnectorPad*%
%ADD10R,1.500000X11.000000*%
%TD*%
%TA.AperFunction,ComponentPad*%
%ADD11O,1.700000X1.700000*%
%TD*%
%TA.AperFunction,ComponentPad*%
%ADD12R,1.700000X1.700000*%
%TD*%
%TA.AperFunction,ComponentPad*%
%ADD13R,1.600000X1.600000*%
%TD*%
%TA.AperFunction,ComponentPad*%
%ADD14O,1.600000X1.600000*%
%TD*%
%TA.AperFunction,ViaPad*%
%ADD15C,0.600000*%
%TD*%
%TA.AperFunction,Conductor*%
%ADD16C,1.000000*%
%TD*%
%TA.AperFunction,Conductor*%
%ADD17C,0.250000*%
%TD*%
G04 APERTURE END LIST*
D10*
%TO.P,J1,1,Pin_1*%
%TO.N,VCC*%
X151808691Y-156000414D03*
%TO.P,J1,3,Pin_3*%
%TO.N,A7*%
X149268691Y-156000414D03*
%TO.P,J1,5,Pin_5*%
%TO.N,A6*%
X146728691Y-156000414D03*
%TO.P,J1,7,Pin_7*%
%TO.N,A5*%
X144188691Y-156000414D03*
%TO.P,J1,9,Pin_9*%
%TO.N,A4*%
X141648691Y-156000414D03*
%TO.P,J1,11,Pin_11*%
%TO.N,A3*%
X139108691Y-156000414D03*
%TO.P,J1,13,Pin_13*%
%TO.N,A10*%
X136568691Y-156000414D03*
%TO.P,J1,15,Pin_15*%
%TO.N,A0*%
X134028691Y-156000414D03*
%TO.P,J1,17,Pin_17*%
%TO.N,D0*%
X131488691Y-156000414D03*
%TO.P,J1,19,Pin_19*%
%TO.N,D1*%
X128948691Y-156000414D03*
%TO.P,J1,21,Pin_21*%
%TO.N,D2*%
X126408691Y-156000414D03*
%TO.P,J1,23,Pin_23*%
%TO.N,D3*%
X123868691Y-156000414D03*
%TO.P,J1,25,Pin_25*%
%TO.N,{slash}CCS3*%
X121328691Y-156000414D03*
%TO.P,J1,27,Pin_27*%
%TO.N,{slash}CCS1*%
X118788691Y-156000414D03*
%TO.P,J1,29,Pin_29*%
%TO.N,GND*%
X116248691Y-156000414D03*
%TD*%
D11*
%TO.P,U1,1,GPIO0*%
%TO.N,A0*%
X143280000Y-140760000D03*
%TO.P,U1,2,GPIO1*%
%TO.N,A1*%
X143280000Y-138220000D03*
D12*
%TO.P,U1,3,GND*%
%TO.N,GND*%
X143280000Y-135680000D03*
D11*
%TO.P,U1,4,GPIO2*%
%TO.N,A2*%
X143280000Y-133140000D03*
%TO.P,U1,5,GPIO3*%
%TO.N,A3*%
X143280000Y-130600000D03*
%TO.P,U1,6,GPIO4*%
%TO.N,A4*%
X143280000Y-128060000D03*
%TO.P,U1,7,GPIO5*%
%TO.N,A5*%
X143280000Y-125520000D03*
D12*
%TO.P,U1,8,GND*%
%TO.N,GND*%
X143280000Y-122980000D03*
D11*
%TO.P,U1,9,GPIO6*%
%TO.N,A6*%
X143280000Y-120440000D03*
%TO.P,U1,10,GPIO7*%
%TO.N,A7*%
X143280000Y-117900000D03*
%TO.P,U1,11,GPIO8*%
%TO.N,A8*%
X143280000Y-115360000D03*
%TO.P,U1,12,GPIO9*%
%TO.N,A9*%
X143280000Y-112820000D03*
D12*
%TO.P,U1,13,GND*%
%TO.N,GND*%
X143280000Y-110280000D03*
D11*
%TO.P,U1,14,GPIO10*%
%TO.N,A10*%
X143280000Y-107740000D03*
%TO.P,U1,15,GPIO11*%
%TO.N,A11*%
X143280000Y-105200000D03*
%TO.P,U1,16,GPIO12*%
%TO.N,A12*%
X143280000Y-102660000D03*
%TO.P,U1,17,GPIO13*%
%TO.N,A13*%
X143280000Y-100120000D03*
D12*
%TO.P,U1,18,GND*%
%TO.N,GND*%
X143280000Y-97580000D03*
D11*
%TO.P,U1,19,GPIO14*%
%TO.N,D0*%
X143280000Y-95040000D03*
%TO.P,U1,20,GPIO15*%
%TO.N,D1*%
X143280000Y-92500000D03*
%TO.P,U1,21,GPIO16*%
%TO.N,D2*%
X125500000Y-92500000D03*
%TO.P,U1,22,GPIO17*%
%TO.N,D3*%
X125500000Y-95040000D03*
D12*
%TO.P,U1,23,GND*%
%TO.N,GND*%
X125500000Y-97580000D03*
D11*
%TO.P,U1,24,GPIO18*%
%TO.N,D4*%
X125500000Y-100120000D03*
%TO.P,U1,25,GPIO19*%
%TO.N,D5*%
X125500000Y-102660000D03*
%TO.P,U1,26,GPIO20*%
%TO.N,D6*%
X125500000Y-105200000D03*
%TO.P,U1,27,GPIO21*%
%TO.N,D7*%
X125500000Y-107740000D03*
D12*
%TO.P,U1,28,GND*%
%TO.N,GND*%
X125500000Y-110280000D03*
D11*
%TO.P,U1,29,GPIO22*%
%TO.N,{slash}CCS1*%
X125500000Y-112820000D03*
%TO.P,U1,30,RUN*%
%TO.N,unconnected-(U1-RUN-Pad30)_1*%
X125500000Y-115360000D03*
%TO.P,U1,31,GPIO26_ADC0*%
%TO.N,{slash}CCS2*%
X125500000Y-117900000D03*
%TO.P,U1,32,GPIO27_ADC1*%
%TO.N,{slash}CCS3*%
X125500000Y-120440000D03*
D12*
%TO.P,U1,33,AGND*%
%TO.N,GND*%
X125500000Y-122980000D03*
D11*
%TO.P,U1,34,GPIO28_ADC2*%
%TO.N,{slash}CCS4*%
X125500000Y-125520000D03*
%TO.P,U1,35,ADC_VREF*%
%TO.N,unconnected-(U1-ADC_VREF-Pad35)*%
X125500000Y-128060000D03*
%TO.P,U1,36,3V3*%
%TO.N,unconnected-(U1-3V3-Pad36)*%
X125500000Y-130600000D03*
%TO.P,U1,37,3V3_EN*%
%TO.N,unconnected-(U1-3V3_EN-Pad37)*%
X125500000Y-133140000D03*
D12*
%TO.P,U1,38,GND*%
%TO.N,GND*%
X125500000Y-135680000D03*
D11*
%TO.P,U1,39,VSYS*%
%TO.N,Net-(D1-K)*%
X125500000Y-138220000D03*
%TO.P,U1,40,VBUS*%
%TO.N,unconnected-(U1-VBUS-Pad40)_1*%
X125500000Y-140760000D03*
%TO.P,U1,41,SWCLK*%
%TO.N,unconnected-(U1-SWCLK-Pad41)*%
X133805900Y-111030000D03*
D12*
%TO.P,U1,42,GND*%
%TO.N,unconnected-(U1-GND-Pad42)*%
X131265900Y-111030000D03*
D11*
%TO.P,U1,43,SWDIO*%
%TO.N,unconnected-(U1-SWDIO-Pad43)*%
X128725900Y-111030000D03*
%TD*%
D13*
%TO.P,D1,1,K*%
%TO.N,Net-(D1-K)*%
X116000000Y-138120000D03*
D14*
%TO.P,D1,2,A*%
%TO.N,VCC*%
X116000000Y-130500000D03*
%TD*%
D15*
%TO.N,VCC*%
X151808691Y-149500000D03*
%TO.N,A10*%
X138000000Y-148000000D03*
%TO.N,A1*%
X137030608Y-136318004D03*
%TO.N,{slash}CCS2*%
X111500000Y-121500000D03*
%TO.N,A2*%
X137000000Y-133000000D03*
%TD*%
D16*
%TO.N,GND*%
X125500000Y-110280000D02*
X120553274Y-110280000D01*
X120553274Y-110280000D02*
X110050000Y-120783274D01*
X110050000Y-120783274D02*
X110050000Y-137517924D01*
X110050000Y-137517924D02*
X116248691Y-143716615D01*
X116248691Y-143716615D02*
X116248691Y-156000414D01*
D17*
%TO.N,D0*%
X143280000Y-95040000D02*
X135690000Y-102630000D01*
X135690000Y-118810000D02*
X130390000Y-124110000D01*
X135690000Y-102630000D02*
X135690000Y-118810000D01*
X130390000Y-124110000D02*
X130390000Y-142412618D01*
X130390000Y-142412618D02*
X131488691Y-143511309D01*
X131488691Y-143511309D02*
X131488691Y-156000414D01*
D16*
%TO.N,GND*%
X143280000Y-135680000D02*
X141600000Y-134000000D01*
X136585786Y-134000000D02*
X136000000Y-133414214D01*
X141600000Y-134000000D02*
X136585786Y-134000000D01*
X136000000Y-130260000D02*
X143280000Y-122980000D01*
X136000000Y-133414214D02*
X136000000Y-130260000D01*
D17*
%TO.N,A1*%
X137030608Y-136318004D02*
X138318004Y-136318004D01*
X138318004Y-136318004D02*
X140220000Y-138220000D01*
X140220000Y-138220000D02*
X143280000Y-138220000D01*
D16*
%TO.N,GND*%
X143280000Y-110280000D02*
X141730000Y-111830000D01*
X141730000Y-111830000D02*
X141730000Y-121430000D01*
X141730000Y-121430000D02*
X143280000Y-122980000D01*
X143280000Y-97580000D02*
X144830000Y-99130000D01*
X144830000Y-99130000D02*
X144830000Y-108730000D01*
X144830000Y-108730000D02*
X143280000Y-110280000D01*
X125500000Y-97580000D02*
X123950000Y-96030000D01*
X123950000Y-96030000D02*
X123950000Y-91550000D01*
X123950000Y-91550000D02*
X124550000Y-90950000D01*
X124550000Y-90950000D02*
X144450000Y-90950000D01*
X144830000Y-91330000D02*
X144830000Y-96030000D01*
X144450000Y-90950000D02*
X144830000Y-91330000D01*
X144830000Y-96030000D02*
X143280000Y-97580000D01*
X125500000Y-97580000D02*
X123950000Y-99130000D01*
X123950000Y-99130000D02*
X123950000Y-108730000D01*
X123950000Y-108730000D02*
X125500000Y-110280000D01*
%TO.N,VCC*%
X151808691Y-156000414D02*
X151808691Y-149500000D01*
D17*
%TO.N,A10*%
X136568691Y-149431309D02*
X138000000Y-148000000D01*
X136568691Y-156000414D02*
X136568691Y-149431309D01*
%TO.N,D2*%
X125500000Y-92500000D02*
X127125000Y-94125000D01*
X127125000Y-94125000D02*
X127125000Y-146283691D01*
X127125000Y-146283691D02*
X126408691Y-147000000D01*
%TO.N,D3*%
X123868691Y-148000000D02*
X126675000Y-145193691D01*
X123868691Y-156000414D02*
X123868691Y-148000000D01*
X126675000Y-145193691D02*
X126675000Y-96215000D01*
X126675000Y-96215000D02*
X125500000Y-95040000D01*
%TO.N,D2*%
X126408691Y-156000414D02*
X126408691Y-147000000D01*
%TO.N,D1*%
X128948691Y-156000414D02*
X128948691Y-115697209D01*
X128948691Y-115697209D02*
X132500000Y-112145900D01*
X132500000Y-112145900D02*
X132500000Y-103280000D01*
X132500000Y-103280000D02*
X143280000Y-92500000D01*
%TO.N,A0*%
X134028691Y-156000414D02*
X134028691Y-150011309D01*
X134028691Y-150011309D02*
X143280000Y-140760000D01*
%TO.N,A3*%
X139108691Y-156000414D02*
X139108691Y-146593010D01*
X139108691Y-146593010D02*
X144455000Y-141246701D01*
X144455000Y-141246701D02*
X144455000Y-131775000D01*
X144455000Y-131775000D02*
X143280000Y-130600000D01*
%TO.N,A4*%
X141648691Y-147851309D02*
X145000000Y-144500000D01*
X141648691Y-156000414D02*
X141648691Y-147851309D01*
X145000000Y-144500000D02*
X145000000Y-129780000D01*
X145000000Y-129780000D02*
X143280000Y-128060000D01*
%TO.N,A5*%
X144188691Y-156000414D02*
X144188691Y-146311309D01*
X144188691Y-146311309D02*
X145500000Y-145000000D01*
X145500000Y-145000000D02*
X145500000Y-127740000D01*
X145500000Y-127740000D02*
X143280000Y-125520000D01*
%TO.N,A6*%
X146728691Y-156000414D02*
X146728691Y-123888691D01*
X146728691Y-123888691D02*
X143280000Y-120440000D01*
%TO.N,A7*%
X149268691Y-156000414D02*
X149268691Y-123888691D01*
X149268691Y-123888691D02*
X143280000Y-117900000D01*
%TO.N,{slash}CCS3*%
X121328691Y-156000414D02*
X121328691Y-124611309D01*
X121328691Y-124611309D02*
X125500000Y-120440000D01*
%TO.N,{slash}CCS1*%
X118788691Y-156000414D02*
X118788691Y-129672575D01*
X118788691Y-129672575D02*
X110875000Y-121758884D01*
X119180000Y-112820000D02*
X125500000Y-112820000D01*
X110875000Y-121758884D02*
X110875000Y-121125000D01*
X110875000Y-121125000D02*
X119180000Y-112820000D01*
%TO.N,{slash}CCS2*%
X125500000Y-117900000D02*
X115100000Y-117900000D01*
X115100000Y-117900000D02*
X111500000Y-121500000D01*
%TO.N,A2*%
X137140000Y-133140000D02*
X137000000Y-133000000D01*
X143280000Y-133140000D02*
X137140000Y-133140000D01*
%TO.N,A5*%
X144188691Y-156000414D02*
X144188691Y-151250414D01*
%TO.N,A10*%
X136568691Y-156000414D02*
X136568691Y-151250414D01*
%TD*%
M02*
